<svg width="45" height="45" viewBox="0 0 45 45" fill="none" xmlns="http://www.w3.org/2000/svg">
<path d="M42.7869 1.65979H2.21309C0.992813 1.65979 0 2.6526 0 3.87296V6.08605C0 7.30632 0.992813 8.29922 2.21309 8.29922H2.95075V33.0123C2.95075 33.4197 3.28104 33.75 3.68842 33.75H16.6616L9.06847 41.3432C8.78036 41.6313 8.78036 42.0984 9.06847 42.3865C9.21252 42.5305 9.40131 42.6025 9.5901 42.6025C9.77889 42.6025 9.96768 42.5305 10.1117 42.3865L18.7482 33.75H21.7623V42.6025C21.7623 43.0099 22.0926 43.3402 22.5 43.3402C22.9074 43.3402 23.2377 43.0099 23.2377 42.6025V33.75H26.2518L34.8882 42.3865C35.0322 42.5305 35.221 42.6025 35.4098 42.6025C35.5986 42.6025 35.7874 42.5305 35.9314 42.3865C36.2196 42.0984 36.2196 41.6313 35.9314 41.3432L28.3383 33.75H41.3115C41.7189 33.75 42.0492 33.4197 42.0492 33.0123V8.29922H42.7869C44.0072 8.29922 45 7.30641 45 6.08605V3.87296C45 2.6526 44.0072 1.65979 42.7869 1.65979ZM40.5738 32.2746H4.42617V8.29922H40.5738V32.2746ZM43.5246 6.08605C43.5246 6.49281 43.1937 6.82372 42.7869 6.82372H2.21309C1.80633 6.82372 1.47533 6.49281 1.47533 6.08605V3.87296C1.47533 3.46621 1.80633 3.1353 2.21309 3.1353H42.7869C43.1937 3.1353 43.5246 3.46621 43.5246 3.87296V6.08605Z" fill="#F1663E"/>
<path d="M15.8607 28.955C20.7419 28.955 24.7131 24.9838 24.7131 20.1025C24.7131 15.2213 20.7419 11.25 15.8607 11.25C10.9794 11.25 7.00822 15.2212 7.00822 20.1025C7.00814 24.9837 10.9794 28.955 15.8607 28.955ZM23.2008 19.3648H16.5983V12.7624C20.0783 13.1096 22.8536 15.8848 23.2008 19.3648ZM15.123 12.7624V20.1025C15.123 20.5099 15.4533 20.8402 15.8607 20.8402H23.2008C22.8294 24.5628 19.6794 27.4795 15.8607 27.4795C11.7929 27.4795 8.48356 24.1702 8.48356 20.1024C8.48356 16.2838 11.4003 13.1338 15.123 12.7624Z" fill="#F1663E"/>
<path d="M28.4017 14.5697H37.2541C37.6615 14.5697 37.9918 14.2394 37.9918 13.832C37.9918 13.4247 37.6615 13.0944 37.2541 13.0944H28.4017C27.9943 13.0944 27.664 13.4247 27.664 13.832C27.664 14.2394 27.9942 14.5697 28.4017 14.5697Z" fill="#F1663E"/>
<path d="M28.4017 20.8402H37.2541C37.6615 20.8402 37.9918 20.5099 37.9918 20.1025C37.9918 19.6952 37.6615 19.3649 37.2541 19.3649H28.4017C27.9943 19.3649 27.664 19.6952 27.664 20.1025C27.664 20.5099 27.9942 20.8402 28.4017 20.8402Z" fill="#F1663E"/>
<path d="M28.4017 27.1106H37.2541C37.6615 27.1106 37.9918 26.7803 37.9918 26.3729C37.9918 25.9655 37.6615 25.6353 37.2541 25.6353H28.4017C27.9943 25.6353 27.664 25.9655 27.664 26.3729C27.664 26.7803 27.9942 27.1106 28.4017 27.1106Z" fill="#F1663E"/>
</svg>
