<svg width="45" height="45" viewBox="0 0 45 45" fill="none" xmlns="http://www.w3.org/2000/svg">
<g clip-path="url(#clip0_200_7264)">
<path d="M41.8359 24.6744V20.0059C41.8359 19.543 41.6083 19.1099 41.2269 18.8475C40.8456 18.585 40.3597 18.527 39.9275 18.6924L29.0498 22.8515H22.8516C21.4146 22.8515 20.2268 23.9349 20.0599 25.3275C18.0819 25.496 16.5234 27.1587 16.5234 29.1796C16.5234 31.2005 18.0819 32.8632 20.0599 33.0317C20.2074 34.2621 21.1518 35.2503 22.361 35.464L25.7179 43.7038C26.0387 44.4912 26.7954 45 27.6456 45H29.2098C29.9013 45 30.5456 44.6581 30.9333 44.0856C31.3211 43.5131 31.3993 42.788 31.1426 42.1461L28.4894 35.5078H29.0498L39.9276 39.6669C40.0902 39.7291 40.2603 39.7597 40.4296 39.7597C40.7105 39.7597 40.9891 39.6755 41.227 39.5118C41.6083 39.2494 41.8359 38.8163 41.8359 38.3534V33.6847C43.6337 33.3531 45 31.775 45 29.8828V28.4765C45 26.5842 43.6337 25.0061 41.8359 24.6744ZM17.9297 29.1796C17.9297 27.9421 18.8481 26.9152 20.0391 26.7441V31.614C18.8481 31.4429 17.9297 30.4171 17.9297 29.1796ZM21.4453 32.6953V25.664C21.4453 24.8886 22.0762 24.2578 22.8516 24.2578H28.4766V34.1015H22.8516C22.0762 34.1015 21.4453 33.4706 21.4453 32.6953ZM29.8368 42.6679C29.9213 42.8792 29.8966 43.1086 29.769 43.2971C29.6413 43.4856 29.4375 43.5937 29.2098 43.5937H27.6456C27.3698 43.5937 27.1244 43.4286 27.0203 43.1732L23.8973 35.5078H26.975L29.8368 42.6679ZM40.4297 38.3534L29.8828 34.3207V24.0386L40.4297 20.006V38.3534ZM43.5938 29.8828C43.5938 30.9955 42.8513 31.9379 41.8359 32.2411V26.1184C42.8513 26.4216 43.5938 27.3638 43.5938 28.4765V29.8828Z" fill="#F1663E"/>
<path d="M32.6953 20.0391C33.0836 20.0391 33.3984 19.7243 33.3984 19.3359V2.73639C33.3984 1.22757 32.171 0 30.6621 0H7.3067C5.79779 0 4.57031 1.22748 4.57031 2.73639V32.3438C4.57031 33.1191 5.20119 33.75 5.97656 33.75H15.8203C16.2086 33.75 16.5234 33.4352 16.5234 33.0469C16.5234 32.6586 16.2086 32.3438 15.8203 32.3438H5.97656V9.14062H31.9922V19.3359C31.9922 19.7243 32.307 20.0391 32.6953 20.0391ZM5.97656 7.73438V2.73639C5.97656 2.00294 6.57325 1.40625 7.3067 1.40625H30.6621C31.3956 1.40625 31.9922 2.00294 31.9922 2.73639V7.73438H5.97656Z" fill="#F1663E"/>
<path d="M28.8281 3.51562C28.2466 3.51562 27.7734 3.98874 27.7734 4.57031C27.7734 5.15188 28.2466 5.625 28.8281 5.625C29.4097 5.625 29.8828 5.15188 29.8828 4.57031C29.8828 3.98874 29.4097 3.51562 28.8281 3.51562ZM28.8281 4.92188C28.6342 4.92188 28.4766 4.7642 28.4766 4.57031C28.4766 4.37643 28.6342 4.21875 28.8281 4.21875C29.022 4.21875 29.1797 4.37643 29.1797 4.57031C29.1797 4.7642 29.022 4.92188 28.8281 4.92188Z" fill="#F1663E"/>
<path d="M24.2578 3.51562C23.6762 3.51562 23.2031 3.98874 23.2031 4.57031C23.2031 5.15188 23.6762 5.625 24.2578 5.625C24.8394 5.625 25.3125 5.15188 25.3125 4.57031C25.3125 3.98874 24.8394 3.51562 24.2578 3.51562ZM24.2578 4.92188C24.0639 4.92188 23.9062 4.7642 23.9062 4.57031C23.9062 4.37643 24.0639 4.21875 24.2578 4.21875C24.4517 4.21875 24.6094 4.37643 24.6094 4.57031C24.6094 4.7642 24.4517 4.92188 24.2578 4.92188Z" fill="#F1663E"/>
<path d="M20.0391 3.86719H8.78906C8.40076 3.86719 8.08594 4.18201 8.08594 4.57031C8.08594 4.95861 8.40076 5.27344 8.78906 5.27344H20.0391C20.4274 5.27344 20.7422 4.95861 20.7422 4.57031C20.7422 4.18201 20.4274 3.86719 20.0391 3.86719Z" fill="#F1663E"/>
<path d="M16.6924 12.596C16.6009 12.5437 16.4988 12.5126 16.3937 12.5051C15.784 12.4612 15.1238 12.6968 14.6705 13.1189C14.2785 13.4839 14.0626 13.965 14.0626 14.4737V22.0889C14.0626 22.7227 14.3899 23.2911 14.938 23.6092C15.2139 23.7693 15.517 23.8494 15.8202 23.8494C16.1196 23.8494 16.4191 23.7713 16.6924 23.6151L23.3558 19.8075C23.8299 19.5366 24.1366 19.0842 24.2195 18.5339C24.3213 17.8574 24.0599 17.1096 23.52 16.5334C23.472 16.4821 23.4167 16.4384 23.3557 16.4036L16.6924 12.596ZM22.8289 18.3244C22.8046 18.4857 22.7197 18.5513 22.658 18.5865L15.9947 22.3941C15.836 22.4847 15.6964 22.4235 15.6438 22.3929C15.5912 22.3623 15.4687 22.2716 15.4687 22.0889V14.4737C15.4687 14.43 15.4687 14.2971 15.6287 14.1481C15.7649 14.0212 15.969 13.9323 16.1595 13.911L22.5575 17.567C22.7966 17.8555 22.8562 18.1431 22.8289 18.3244Z" fill="#F1663E"/>
<path d="M2.8125 38.3203H12.3047V43.5938H9.49219C9.10389 43.5938 8.78906 43.9086 8.78906 44.2969C8.78906 44.6852 9.10389 45 9.49219 45H13.0078H23.2031C23.5914 45 23.9062 44.6852 23.9062 44.2969C23.9062 43.9086 23.5914 43.5938 23.2031 43.5938H13.7109V38.3203H20.7422C21.1305 38.3203 21.4453 38.0055 21.4453 37.6172C21.4453 37.2289 21.1305 36.9141 20.7422 36.9141H2.8125C2.03713 36.9141 1.40625 36.2832 1.40625 35.5078V10.5469C1.40625 9.7715 2.03713 9.14062 2.8125 9.14062C3.2008 9.14062 3.51562 8.8258 3.51562 8.4375C3.51562 8.0492 3.2008 7.73438 2.8125 7.73438C1.26167 7.73438 0 8.99604 0 10.5469V35.5078C0 37.0586 1.26167 38.3203 2.8125 38.3203Z" fill="#F1663E"/>
<path d="M37.2656 18.2812C37.6539 18.2812 37.9688 17.9665 37.9688 17.5781V10.5469C37.9688 8.99604 36.7071 7.73438 35.1562 7.73438C34.7679 7.73438 34.4531 8.0492 34.4531 8.4375C34.4531 8.8258 34.7679 9.14062 35.1562 9.14062C35.9316 9.14062 36.5625 9.7715 36.5625 10.5469V17.5781C36.5625 17.9665 36.8773 18.2812 37.2656 18.2812Z" fill="#F1663E"/>
</g>
<defs>
<clipPath id="clip0_200_7264">
<rect width="45" height="45" fill="white"/>
</clipPath>
</defs>
</svg>
