<svg width="45" height="45" viewBox="0 0 45 45" fill="none" xmlns="http://www.w3.org/2000/svg">
<g clip-path="url(#clip0_200_7455)">
<path d="M14.0869 44.8044H10.5652C9.70216 44.8044 9 44.1022 9 43.2392V33.8479C9 32.9849 9.70216 32.2827 10.5652 32.2827H14.0869C14.9499 32.2827 15.6521 32.9849 15.6521 33.8479V43.2392C15.6522 44.1022 14.95 44.8044 14.0869 44.8044ZM10.5652 43.2392H14.0869V33.8479H10.5652V43.2392Z" fill="#F1663E"/>
<path d="M5.08693 44.8044H1.56516C0.702158 44.8044 0 44.1023 0 43.2393V23.674C0 22.8109 0.702158 22.1088 1.56516 22.1088H5.08685C5.94984 22.1088 6.652 22.8109 6.652 23.674V43.2393C6.65209 44.1023 5.94993 44.8044 5.08693 44.8044ZM1.56516 43.2393H5.08685V23.674L1.56516 23.6739V43.2393Z" fill="#F1663E"/>
<path d="M23.087 44.8044H19.5653C18.7023 44.8044 18.0001 44.1023 18.0001 43.2393V29.5436C18.0001 28.6806 18.7023 27.9784 19.5653 27.9784H23.087C23.9501 27.9784 24.6523 28.6806 24.6523 29.5436V43.2393C24.6522 44.1023 23.9501 44.8044 23.087 44.8044ZM19.5653 43.2393H23.087L23.0871 29.5436H19.5653V43.2393Z" fill="#F1663E"/>
<path d="M26.6119 44.4464C26.2756 44.4393 25.9507 44.2078 25.8584 43.8766C25.7422 43.4603 25.9855 43.0286 26.4018 42.9125C34.566 40.6339 40.3418 33.2727 40.6799 24.8479H21.1304C20.6981 24.8479 20.3478 24.4976 20.3478 24.0653V4.51562C11.35 4.87456 3.67337 11.3925 1.9312 20.2786C1.84788 20.7029 1.43672 20.9793 1.01256 20.8961C0.588492 20.8129 0.311988 20.4017 0.395133 19.9775C2.33128 10.1023 11.0517 2.93481 21.1304 2.93481C21.5626 2.93481 21.913 3.28515 21.913 3.71739V23.2827H41.4783C41.9105 23.2827 42.2609 23.6331 42.2609 24.0653C42.2609 28.7727 40.7463 33.2274 37.881 36.9478C35.1061 40.5506 31.1789 43.2043 26.8226 44.4201C26.7532 44.4394 26.6823 44.4478 26.6119 44.4464Z" fill="#F1663E"/>
<path d="M44.2175 21.3261H24.6522C24.22 21.3261 23.8696 20.9757 23.8696 20.5435V0.978257C23.8696 0.546011 24.22 0.195679 24.6522 0.195679C35.8721 0.195679 45 9.32365 45 20.5435C45 20.9757 44.6497 21.3261 44.2175 21.3261ZM25.4348 19.7609H43.4188C43.0175 10.0255 35.1701 2.17823 25.4348 1.77692V19.7609Z" fill="#F1663E"/>
</g>
<defs>
<clipPath id="clip0_200_7455">
<rect width="45" height="45" fill="white"/>
</clipPath>
</defs>
</svg>
