<svg width="43" height="42" viewBox="0 0 43 42" fill="none" xmlns="http://www.w3.org/2000/svg">
<g clip-path="url(#clip0_203_8598)">
<path d="M4.56604 38.7014L7.58299 39.4397L10.5998 38.7014V37.2219L7.58299 36.4836L4.56604 37.2219V38.7014Z" fill="#F9CF58"/>
<path d="M13.844 38.7014L16.861 39.4397L19.8779 38.7014V37.2219L16.861 36.4836L13.844 37.2219V38.7014Z" fill="#FFAC3E"/>
<path d="M23.1221 38.7014L26.139 39.4397L29.156 38.7014V37.2219L26.139 36.4836L23.1221 37.2219V38.7014Z" fill="#82D361"/>
<path d="M32.4001 38.7014L35.417 39.4397L38.4339 38.7014V37.2219L35.417 36.4836L32.4001 37.2219V38.7014Z" fill="#6CC4FF"/>
<path d="M10.5998 37.222H4.56604V31.2529C4.56604 30.7989 4.93403 30.4309 5.38799 30.4309H9.77806C10.232 30.4309 10.6 30.7989 10.6 31.2529V37.222H10.5998Z" fill="#FFE27A"/>
<path d="M19.8779 37.2218H13.844V26.7665C13.844 26.3126 14.212 25.9446 14.666 25.9446H19.056C19.5099 25.9446 19.8779 26.3126 19.8779 26.7665V37.2218Z" fill="#FFBA57"/>
<path d="M29.156 37.2219H23.1221V22.2804C23.1221 21.8265 23.4901 21.4585 23.944 21.4585H28.3341C28.7881 21.4585 29.1561 21.8265 29.1561 22.2804V37.2219H29.156Z" fill="#98DB7C"/>
<path d="M38.4339 37.2218H32.4001V17.7941C32.4001 17.3402 32.768 16.9722 33.222 16.9722H37.6121C38.066 16.9722 38.434 17.3402 38.434 17.7941L38.4339 37.2218Z" fill="#8BCAFF"/>
<path d="M35.1136 9.64862L34.3895 2.43602C34.3643 2.18509 34.1211 2.01577 33.877 2.07935L26.857 3.90766C26.5173 3.99617 26.4378 4.44234 26.726 4.64274L28.5599 5.91775C28.5599 5.91775 23.8568 15.0896 6.86398 20.3337V20.7921C11.5264 20.8176 23.7143 19.4842 31.3584 9.21229L32.6354 8.75144L34.47 10.027C34.7581 10.2273 35.1486 9.99774 35.1136 9.64862Z" fill="#FF4755"/>
<path d="M31.8993 8.23159C31.7163 8.10239 31.4647 8.14422 31.3311 8.32387C23.687 18.5957 13.8803 19.8893 7.14207 20.3574C7.04281 20.3643 6.952 20.3543 6.86915 20.3322L6.86316 20.3341C5.99404 20.6082 6.23751 21.8998 7.14666 21.8366C13.9557 21.3628 25.1955 18.9312 32.6353 8.75158L31.8993 8.23159Z" fill="#FC2B3A"/>
<path d="M41.8835 39.9343H1.11646C0.776035 39.9343 0.5 39.6583 0.5 39.3179C0.5 38.9775 0.775953 38.7014 1.11646 38.7014H41.8836C42.224 38.7014 42.5001 38.9775 42.5001 39.3179C42.5 39.6583 42.224 39.9343 41.8835 39.9343Z" fill="#407093"/>
</g>
<defs>
<clipPath id="clip0_203_8598">
<rect width="42" height="42" fill="white" transform="translate(0.5)"/>
</clipPath>
</defs>
</svg>
