<svg width="43" height="42" viewBox="0 0 43 42" fill="none" xmlns="http://www.w3.org/2000/svg">
<g clip-path="url(#clip0_205_154)">
<path d="M29.4679 28.9678C27.4287 31.0069 24.6116 32.2682 21.5 32.2682L19.3311 36.6787L21.5 41.9999C27.299 41.9999 32.549 39.6494 36.3492 35.8491L34.2436 30.624L29.4679 28.9678Z" fill="#FFE177"/>
<path d="M21.5 37.3489L20.2549 39.943L21.5 41.9999C27.299 41.9999 32.549 39.6494 36.3492 35.8491L35.2556 32.3981L32.1236 31.6235C29.2719 34.4753 25.6038 36.5105 21.5 37.3489Z" fill="#FFD15B"/>
<path d="M21.5 0L19.0848 5.02089L21.5 9.7317C27.7233 9.7317 32.7683 14.7767 32.7683 21L37.3781 23.7317L42.5 21C42.5 9.40201 33.098 0 21.5 0Z" fill="#8AC9FE"/>
<path d="M38.2744 16.7743C38.2744 18.2217 38.1279 19.6349 37.849 20.9999L40.3279 22.1583L42.5 20.9999C42.5 14.1233 39.1946 8.01885 34.0861 4.18823C36.7161 7.69564 38.2744 12.0529 38.2744 16.7743Z" fill="#60B7FF"/>
<path d="M4.7822 33.6815L5.79643 34.6694L8.87597 37.0329L16.7872 39.435L21.5 37.349V32.2683C15.2767 32.2683 10.2317 27.2233 10.2317 21C10.2317 14.7767 15.2767 9.7317 21.5 9.7317V0C9.90201 0 0.5 9.40201 0.5 21C0.5 25.7214 2.05835 30.0786 4.68843 33.5861L4.7822 33.6815Z" fill="#FD8087"/>
<path d="M38.7015 22.7899L37.849 21H32.7683C32.7683 24.1117 31.507 26.9287 29.4678 28.9679L32.1236 31.6236L37.4697 29.103L38.7015 22.7899Z" fill="#97D729"/>
<path d="M37.849 21C37.0106 25.1038 34.9753 28.7719 32.1236 31.6236L36.3492 35.8492C40.1495 32.049 42.5 26.799 42.5 21H37.849Z" fill="#8BC727"/>
<path d="M17.2744 37.7743C12.553 37.7743 8.19577 36.2159 4.68835 33.5859C8.51897 38.6944 14.6234 41.9999 21.5 41.9999V37.3489C20.135 37.6278 18.7218 37.7743 17.2744 37.7743Z" fill="#FE646F"/>
<path d="M22.9553 26.4634L23.1488 26.4589L23.3691 26.4394L24.2814 26.2777L25.5671 25.785L26.2127 23.7318L25.0744 21H17.4024C15.8937 21 14.6707 22.223 14.6707 23.7317C14.6707 25.2404 15.8937 26.4634 17.4024 26.4634H22.8658H22.9553Z" fill="#E2DEE2"/>
<path d="M22.9553 15.5366L23.1488 15.5411L23.3691 15.5607L24.2814 15.7223L25.5671 16.2151L26.2127 18.2683L25.0744 21.0001H17.4024C15.8937 21.0001 14.6707 19.7771 14.6707 18.2683C14.6707 16.7596 15.8937 15.5366 17.4024 15.5366H22.8658H22.9553Z" fill="#E2DEE2"/>
<path d="M25.5975 21C27.0884 21 28.3003 19.8057 28.3288 18.3216C28.3581 16.7901 27.0753 15.5366 25.5436 15.5366H22.8659C24.3745 15.5366 25.5976 16.7596 25.5976 18.2683C25.5976 18.2769 25.5976 18.2854 25.5975 18.2939C25.5869 19.4566 24.6205 20.3848 23.4576 20.3848H15.6758C16.1464 20.7692 16.7474 21.0001 17.4025 21.0001C16.7474 21.0001 16.1465 21.2309 15.6758 21.6153H23.4576C24.6204 21.6153 25.5868 22.5434 25.5975 23.7062C25.5976 23.7147 25.5976 23.7233 25.5976 23.7318C25.5976 25.2404 24.3746 26.4635 22.8659 26.4635H25.5436C27.0753 26.4635 28.3581 25.21 28.3288 23.6786C28.3004 22.1944 27.0885 21 25.5975 21Z" fill="#CBC4CC"/>
<path d="M25.5975 18.8835H20.1342C19.7943 18.8835 19.5189 18.6081 19.5189 18.2683C19.5189 17.9285 19.7943 17.6531 20.1342 17.6531H25.5976C25.9375 17.6531 26.2128 17.9285 26.2128 18.2683C26.2128 18.6081 25.9374 18.8835 25.5975 18.8835Z" fill="#918291"/>
<path d="M25.5975 24.3469H20.1342C19.7943 24.3469 19.5189 24.0715 19.5189 23.7317C19.5189 23.3919 19.7943 23.1165 20.1342 23.1165H25.5976C25.9375 23.1165 26.2128 23.3919 26.2128 23.7317C26.2128 24.0715 25.9374 24.3469 25.5975 24.3469Z" fill="#918291"/>
<path d="M17.4025 18.8835C17.7423 18.8835 18.0177 18.6081 18.0177 18.2683C18.0177 17.9285 17.7423 17.6531 17.4025 17.6531C17.0627 17.6531 16.7872 17.9285 16.7872 18.2683C16.7872 18.6081 17.0627 18.8835 17.4025 18.8835Z" fill="#FD8087"/>
<path d="M17.4025 24.3469C17.7423 24.3469 18.0177 24.0715 18.0177 23.7317C18.0177 23.3919 17.7423 23.1165 17.4025 23.1165C17.0627 23.1165 16.7872 23.3919 16.7872 23.7317C16.7872 24.0715 17.0627 24.3469 17.4025 24.3469Z" fill="#FD8087"/>
</g>
<defs>
<clipPath id="clip0_205_154">
<rect width="42" height="42" fill="white" transform="translate(0.5)"/>
</clipPath>
</defs>
</svg>
