<svg width="42" height="42" viewBox="0 0 42 42" fill="none" xmlns="http://www.w3.org/2000/svg">
<g clip-path="url(#clip0_205_181)">
<path d="M33.773 11.7715V24.4502C33.773 24.734 33.7459 25.0113 33.6942 25.2803C32.9789 25.4149 32.3267 25.7266 31.7837 26.1679C31.2366 26.6125 30.8002 27.1884 30.5237 27.8479C30.4031 28.135 30.3129 28.4385 30.2571 28.7535C29.979 28.8093 29.6919 28.8388 29.3974 28.8388H13.8132L10.0422 33.2767C9.92574 33.4145 9.75512 33.4941 9.57465 33.4941C9.39418 33.4941 9.22274 33.4145 9.10543 33.2767L5.33447 28.8388H4.37635C1.963 28.8388 0 26.8701 0 24.4502V11.7715C0 9.35156 1.963 7.38281 4.37635 7.38281H29.3974C31.81 7.38281 33.773 9.35156 33.773 11.7715Z" fill="#9090FB"/>
<path d="M27.7576 28.8388C28.8059 28.8388 29.769 28.4672 30.5237 27.8479C30.4031 28.135 30.3128 28.4385 30.2571 28.7535C29.979 28.8093 29.6919 28.8388 29.3974 28.8388H27.7576Z" fill="#6C5FEA"/>
<path d="M33.7729 11.7715V24.4502C33.7729 24.7341 33.7458 25.0113 33.6942 25.2804C32.9789 25.4149 32.3267 25.7266 31.7837 26.168C32.0084 25.6405 32.1331 25.0597 32.1331 24.4502V11.7715C32.1331 9.35156 30.1701 7.38281 27.7576 7.38281H29.3974C31.8099 7.38281 33.7729 9.35156 33.7729 11.7715Z" fill="#6C5FEA"/>
<path d="M20.8041 39.3471C20.8041 40.8097 19.6163 42 18.1564 42H2.64772C1.18781 42 0 40.8097 0 39.3471C0 37.8845 1.18781 36.695 2.64772 36.695H2.87807L4.26177 34.7837C4.37735 34.6237 4.56258 34.5286 4.75937 34.5286C4.9569 34.5286 5.14221 34.6237 5.25779 34.7837L6.6415 36.695H18.1563C19.6163 36.695 20.8041 37.8845 20.8041 39.3471Z" fill="#FF6B81"/>
<path d="M42 2.65289C42 4.11551 40.8121 5.30496 39.3522 5.30496H37.7127L36.329 7.21629C36.2135 7.37625 36.0282 7.47141 35.8314 7.47141C35.6339 7.47141 35.4486 7.37625 35.333 7.21629L33.9501 5.30496H23.8436C22.3837 5.30496 21.1959 4.11551 21.1959 2.65289C21.1959 1.19027 22.3837 0 23.8436 0H39.3522C40.8121 0 42 1.19027 42 2.65289Z" fill="#FBDF63"/>
<path d="M41.9998 2.65289C41.9998 4.11551 40.812 5.30496 39.3521 5.30496H37.7126C39.1726 5.30496 40.3604 4.11551 40.3604 2.65289C40.3604 1.19027 39.1726 0 37.7126 0H39.3521C40.812 0 41.9998 1.19027 41.9998 2.65289Z" fill="#FFA402"/>
<path d="M20.804 39.3471C20.804 40.8098 19.6162 42 18.1563 42H16.5168C17.9768 42 19.1646 40.8098 19.1646 39.3471C19.1646 37.8845 17.9768 36.6951 16.5168 36.6951H18.1563C19.6162 36.6951 20.804 37.8845 20.804 39.3471Z" fill="#ED2061"/>
<path d="M12.2926 15.4585C12.6324 15.4585 12.9079 15.1831 12.9079 14.8433C12.9079 14.5034 12.6324 14.228 12.2926 14.228H9.01147C8.6717 14.228 8.39624 14.5034 8.39624 14.8433V18.1245C8.39624 18.4644 8.6717 18.7397 9.01147 18.7397H11.6774V20.7905H9.01147C8.6717 20.7905 8.39624 21.0659 8.39624 21.4058C8.39624 21.7456 8.6717 22.021 9.01147 22.021H12.2926C12.6324 22.021 12.9079 21.7456 12.9079 21.4058V18.1245C12.9079 17.7847 12.6324 17.5093 12.2926 17.5093H9.62671V15.4585H12.2926Z" fill="white"/>
<path d="M18.4449 15.4585C18.7846 15.4585 19.0601 15.1831 19.0601 14.8433C19.0601 14.5034 18.7846 14.228 18.4449 14.228H15.1637C14.8239 14.228 14.5485 14.5034 14.5485 14.8433V21.4058C14.5485 21.7456 14.8239 22.021 15.1637 22.021H18.4449C18.7846 22.021 19.0601 21.7456 19.0601 21.4058C19.0601 21.0659 18.7846 20.7905 18.4449 20.7905H15.7789V18.7397H18.4449C18.7846 18.7397 19.0601 18.4644 19.0601 18.1245C19.0601 17.7847 18.7846 17.5093 18.4449 17.5093H15.7789V15.4585H18.4449Z" fill="white"/>
<path d="M24.5971 14.228H21.3159C20.9761 14.228 20.7007 14.5034 20.7007 14.8433V21.4058C20.7007 21.7456 20.9761 22.021 21.3159 22.021H24.5971C24.9369 22.021 25.2123 21.7456 25.2123 21.4058V14.8433C25.2123 14.5034 24.9369 14.228 24.5971 14.228ZM23.9819 20.7905H21.9312V15.4585H23.9819V20.7905Z" fill="white"/>
<path d="M41.9992 28.2801C41.9992 27.9783 41.7785 27.7207 41.4799 27.6731L40.6309 27.5386L40.2265 26.5608L40.731 25.8644C40.9082 25.6191 40.8819 25.282 40.6678 25.068L38.9304 23.3306C38.7163 23.1165 38.3783 23.0903 38.1331 23.2683L37.4383 23.7736L36.4613 23.3692L36.3259 22.5194C36.2783 22.2208 36.0208 22.001 35.7189 22.001H34.6746L33.2621 22.0018C32.9594 22.0026 32.7018 22.2225 32.6542 22.5211L32.5197 23.3708L31.5435 23.7761L30.8479 23.2707C30.6026 23.0936 30.2655 23.1198 30.0513 23.3339L28.3147 25.0729C28.1006 25.287 28.0744 25.6241 28.2524 25.8693L28.7569 26.5649L28.3525 27.5435L27.5043 27.678C27.2057 27.7256 26.9858 27.9832 26.9858 28.2859L26.9867 30.7442C26.9867 31.0461 27.2073 31.3036 27.5059 31.3512L28.3549 31.4858L28.7594 32.4635L28.2549 33.1599C28.0777 33.4051 28.1039 33.7423 28.318 33.9563L30.0555 35.6936C30.2696 35.9077 30.6075 35.934 30.852 35.756L31.5468 35.2507L32.5246 35.6559L32.6599 36.5048C32.7075 36.8034 32.9651 37.0233 33.267 37.0233H33.2678L34.4974 37.0225H35.7238C36.0265 37.0216 36.2841 36.8018 36.3317 36.5032L36.4662 35.6534L37.4424 35.2482L38.138 35.7535C38.3833 35.9307 38.7212 35.9045 38.9345 35.6904L40.6711 33.9514C40.8852 33.7373 40.9115 33.4001 40.7335 33.1549L40.229 32.4594L40.6334 31.4817L41.4816 31.3463C41.7802 31.2987 42 31.0411 42 30.7385L41.9992 28.2801ZM34.4925 32.7933C32.6804 32.7933 31.2113 31.3242 31.2113 29.5122C31.2113 27.7002 32.6804 26.2311 34.4925 26.2311C36.3054 26.2311 37.7738 27.7002 37.7738 29.5122C37.7738 31.3242 36.3054 32.7933 34.4925 32.7933Z" fill="#56788B"/>
<path d="M42 30.7384C42 31.0411 41.7802 31.2986 41.4816 31.3462L40.6334 31.4816L40.229 32.4593L40.7335 33.1549C40.9115 33.4002 40.8852 33.7374 40.6711 33.9514L38.9345 35.6904C38.7212 35.9045 38.3833 35.9307 38.138 35.7535L37.4424 35.2482L36.4662 35.6534L36.3317 36.5032C36.2841 36.8018 36.0265 37.0216 35.7238 37.0225H34.4974L35.0405 34.469L37.6622 33.3805L38.3931 33.9113L38.8919 33.4109L38.3619 32.6808L39.4677 30.0059L40.3594 29.864L40.3586 29.1562L39.4669 29.0151L38.3595 26.341L38.8894 25.6101L38.3898 25.1105L37.6597 25.6405L34.9273 24.5093L34.6746 22.001H35.7189C36.0208 22.001 36.2783 22.2208 36.3259 22.5194L36.4613 23.3692L37.4383 23.7736L38.1331 23.2683C38.3783 23.0903 38.7163 23.1165 38.9304 23.3306L40.6678 25.068C40.8819 25.2821 40.9082 25.6192 40.731 25.8644L40.2265 26.5608L40.6309 27.5386L41.4799 27.6731C41.7785 27.7207 41.9992 27.9783 41.9992 28.2801L42 30.7384Z" fill="#415E6F"/>
</g>
<defs>
<clipPath id="clip0_205_181">
<rect width="42" height="42" fill="white"/>
</clipPath>
</defs>
</svg>
