<svg width="42" height="42" viewBox="0 0 42 42" fill="none" xmlns="http://www.w3.org/2000/svg">
<path d="M18.3328 41.9983C28.4577 41.9983 36.6656 33.7905 36.6656 23.6656C36.6656 13.5406 28.4577 5.33276 18.3328 5.33276C8.20787 5.33276 0 13.5406 0 23.6656C0 33.7905 8.20787 41.9983 18.3328 41.9983Z" fill="#FD646F"/>
<path d="M36.6655 23.6656C36.6655 33.7902 28.4574 41.9984 18.3327 41.9984C12.8388 41.9984 7.90851 39.5812 4.54919 35.7517C7.77611 38.5839 12.0054 40.3009 16.6353 40.3009C26.7599 40.3009 34.968 32.0928 34.968 21.9681C34.968 17.3383 33.251 13.109 30.4188 9.88208C34.2483 13.2414 36.6655 18.1717 36.6655 23.6656Z" fill="#FC4755"/>
<path d="M18.3328 37.5002C25.9733 37.5002 32.1672 31.3063 32.1672 23.6658C32.1672 16.0252 25.9733 9.8313 18.3328 9.8313C10.6922 9.8313 4.49829 16.0252 4.49829 23.6658C4.49829 31.3063 10.6922 37.5002 18.3328 37.5002Z" fill="#F5F5F5"/>
<path d="M32.1672 23.6656C32.1672 31.306 25.9731 37.5001 18.3327 37.5001C14.0806 37.5001 10.2765 35.5811 7.73792 32.563C10.1432 34.5847 13.2471 35.8026 16.6353 35.8026C24.2756 35.8026 30.4697 29.6085 30.4697 21.9681C30.4697 18.58 29.2518 15.4761 27.2301 13.0708C30.2482 15.6094 32.1672 19.4134 32.1672 23.6656Z" fill="#E6E6E6"/>
<path d="M18.3328 33.0019C23.4891 33.0019 27.669 28.8219 27.669 23.6657C27.669 18.5095 23.4891 14.3296 18.3328 14.3296C13.1766 14.3296 8.9967 18.5095 8.9967 23.6657C8.9967 28.8219 13.1766 33.0019 18.3328 33.0019Z" fill="#FD646F"/>
<path d="M27.669 23.6657C27.669 28.8218 23.4889 33.0018 18.3328 33.0018C15.3223 33.0018 12.6437 31.5768 10.9369 29.3641C12.513 30.5812 14.4897 31.3044 16.6353 31.3044C21.7914 31.3044 25.9715 27.1243 25.9715 21.9682C25.9715 19.8226 25.2484 17.8459 24.0313 16.2698C26.2439 17.9766 27.669 20.6552 27.669 23.6657Z" fill="#FC4755"/>
<path d="M18.3328 28.4185C20.9578 28.4185 23.0857 26.2905 23.0857 23.6655C23.0857 21.0406 20.9578 18.9126 18.3328 18.9126C15.7078 18.9126 13.5798 21.0406 13.5798 23.6655C13.5798 26.2905 15.7078 28.4185 18.3328 28.4185Z" fill="#F5F5F5"/>
<path d="M35.6785 29.6146C35.317 30.6687 34.8629 31.6787 34.3248 32.6352L30.2322 30.7264C30.7932 29.7843 31.2447 28.7692 31.5698 27.699L35.6785 29.6146Z" fill="#FC4755"/>
<path d="M31.5698 27.6988C31.2447 28.7691 30.7932 29.7842 30.2322 30.7263L26.1234 28.8107C26.7294 27.8966 27.1775 26.8705 27.4305 25.7688L31.5698 27.6988Z" fill="#E6E6E6"/>
<path d="M27.4304 25.7687C27.1775 26.8704 26.7293 27.8965 26.1233 28.8106L21.8779 26.8314C22.6129 26.0081 23.0662 24.9276 23.0848 23.7419L27.4304 25.7687Z" fill="#FC4755"/>
<path d="M23.0849 23.7421C23.0663 24.9278 22.613 26.0082 21.878 26.8315L17.9017 24.977C17.1242 24.6154 16.761 23.726 17.0385 22.9332C17.0572 22.8815 17.0776 22.8297 17.1013 22.7779C17.2948 22.3637 17.6369 22.0675 18.0358 21.9224C18.433 21.7781 18.8871 21.7841 19.3004 21.9776L23.0849 23.7421Z" fill="#E6E6E6"/>
<path d="M41.858 7.65522C41.994 7.67788 42.0476 7.84466 41.9504 7.94243L40.1547 9.74634L39.053 10.8531L36.0427 13.8765C35.8493 14.0708 35.5739 14.1596 35.3033 14.1151L30.8134 13.3756L34.1761 10.04L35.2905 8.93495L37.3402 6.90137L41.858 7.65522Z" fill="#50758D"/>
<path d="M40.1548 9.74645L39.0531 10.8532L34.1763 10.0401L35.2907 8.93506L40.1548 9.74645Z" fill="#2B597F"/>
<path d="M35.1913 4.94167L33.1517 6.93706L32.0424 8.0226L28.6916 11.3013L27.9433 6.7539C27.8989 6.48417 27.9872 6.20961 28.1803 6.01626L31.203 2.99042L32.3089 1.88281L34.1387 0.0516568C34.2367 -0.0464576 34.4046 0.00803154 34.4264 0.144933L35.1913 4.94167Z" fill="#50758D"/>
<path d="M33.1517 6.93706L32.0424 8.0226L31.203 2.99042L32.3089 1.88281L33.1517 6.93706Z" fill="#2B597F"/>
<path d="M39.0709 4.66743C39.0709 5.0901 38.9096 5.51447 38.5863 5.837L19.7705 24.6527C19.1645 25.2596 18.2046 25.2969 17.5545 24.7648C17.512 24.73 17.4704 24.6926 17.4306 24.6527C17.1072 24.3293 16.9459 23.9067 16.9459 23.4823C16.9459 23.0596 17.1072 22.6353 17.4306 22.3127L36.2463 3.49702C36.8922 2.85028 37.9404 2.85028 38.5863 3.49702C38.6261 3.53691 38.6635 3.5785 38.6983 3.62093C38.947 3.92478 39.0709 4.29568 39.0709 4.66743Z" fill="#918291"/>
<path d="M39.0709 4.66759C39.0709 5.09026 38.9096 5.51463 38.5862 5.83716L19.7705 24.6529C19.1645 25.2597 18.2046 25.2971 17.5544 24.7649L38.6983 3.62109C38.9469 3.92494 39.0709 4.29584 39.0709 4.66759Z" fill="#7A6E79"/>
</svg>
