<svg width="60" height="60" viewBox="0 0 60 60" fill="none" xmlns="http://www.w3.org/2000/svg">
<g clip-path="url(#clip0_215_14)">
<path d="M56.1922 36.8897C55.725 37.0215 55.4532 37.5071 55.5851 37.9742C55.9813 39.3783 56.1823 40.8376 56.1823 42.3114C56.1823 51.0958 49.0356 58.2424 40.2512 58.2424C35.6818 58.2424 31.326 56.2757 28.3005 52.8464C27.9794 52.4826 27.4241 52.4478 27.06 52.7688C26.696 53.0899 26.6613 53.6453 26.9824 54.0094C30.3415 57.8167 35.1777 60.0002 40.2512 60.0002C50.0048 60.0002 57.9401 52.065 57.9401 42.3114C57.9401 40.6761 57.7169 39.0562 57.2767 37.4968C57.145 37.0296 56.6591 36.758 56.1922 36.8897Z" fill="#F1663E"/>
<path d="M21.3495 20.5664C17.1163 20.5664 13.4367 23.4299 12.4014 27.5299C12.2824 28.0005 12.5677 28.4784 13.0383 28.5971C13.5092 28.7163 13.9868 28.4309 14.1056 27.9601C14.9437 24.6418 17.9224 22.3241 21.3495 22.3241C25.4693 22.3241 28.821 25.6759 28.821 29.7957C28.821 33.9156 25.4692 37.2674 21.3495 37.2674C17.9224 37.2674 14.9437 34.9498 14.1056 31.6314C13.9868 31.1606 13.5088 30.8752 13.0383 30.9943C12.5677 31.1132 12.2824 31.5911 12.4014 32.0616C13.4367 36.1616 17.1163 39.0251 21.3495 39.0251C26.4386 39.0251 30.5788 34.8847 30.5788 29.7956C30.5788 24.7065 26.4385 20.5664 21.3495 20.5664Z" fill="#F1663E"/>
<path d="M26.303 29.7959C26.303 27.0645 24.0809 24.8423 21.3494 24.8423C18.618 24.8423 16.3958 27.0645 16.3958 29.7959C16.3958 32.5273 18.6179 34.7495 21.3494 34.7495C24.0807 34.7494 26.303 32.5272 26.303 29.7959ZM18.1536 29.7959C18.1536 28.0338 19.5872 26.6001 21.3494 26.6001C23.1116 26.6001 24.5451 28.0337 24.5451 29.7959C24.5451 31.5582 23.1116 32.9917 21.3494 32.9917C19.5873 32.9916 18.1536 31.5581 18.1536 29.7959Z" fill="#F1663E"/>
<path d="M38.9475 47.4966H38.9497C39.2017 47.4966 39.4416 47.3885 39.6085 47.1997L46.4519 39.4541C46.7733 39.0903 46.7388 38.5349 46.3751 38.2135C46.0112 37.892 45.4559 37.9264 45.1346 38.2902L38.953 45.2865L35.371 41.191C35.0514 40.8256 34.4962 40.7885 34.1308 41.1081C33.7654 41.4277 33.7282 41.983 34.0478 42.3482L38.2882 47.1963C38.4545 47.3865 38.6947 47.4959 38.9475 47.4966Z" fill="#F1663E"/>
<path d="M59.3288 19.7678C59.3288 18.6464 58.8242 17.6413 58.0308 16.9656C58.8242 16.2897 59.3288 15.2846 59.3288 14.1633C59.3288 12.1336 57.6774 10.4822 55.6476 10.4822L40.5576 10.482V6.00255C40.5576 4.38712 39.9251 2.87166 38.7768 1.73552C37.6285 0.59939 36.1075 -0.0130319 34.4912 0.000210324C33.3783 0.0121635 32.4729 0.927163 32.4729 2.04009V5.03892C32.4729 5.52443 32.8664 5.91783 33.3518 5.91783C33.8372 5.91783 34.2307 5.52443 34.2307 5.03892V2.04009C34.2307 1.88623 34.3559 1.75955 34.5099 1.75802C34.5254 1.75779 34.5409 1.75767 34.5564 1.75767C35.6814 1.75767 36.7396 2.19255 37.5406 2.98509C38.3527 3.78853 38.7999 4.86033 38.7999 6.00267V10.578C38.7999 11.4943 39.5453 12.2399 40.4617 12.2399H45.3294C44.9847 12.8 44.7854 13.4587 44.7854 14.1633C44.7854 15.2846 45.2901 16.2897 46.0834 16.9656C45.2901 17.6413 44.7854 18.6465 44.7854 19.7678C44.7854 20.8891 45.2901 21.8944 46.0834 22.5701C45.2901 23.2458 44.7854 24.251 44.7854 25.3724C44.7854 26.774 45.5732 27.995 46.7291 28.6166C46.1933 29.2561 45.8701 30.0793 45.8701 30.9769C45.8701 31.2037 45.8918 31.4254 45.9313 31.6411C44.2369 30.7353 42.3032 30.221 40.2513 30.221C38.6241 30.221 37.0713 30.5449 35.653 31.1304C34.7438 30.134 34.2308 28.8278 34.2308 27.469V9.14048C34.2308 8.65498 33.8373 8.26158 33.3519 8.26158C32.8665 8.26158 32.473 8.65498 32.473 9.14048V12.8728C31.7813 12.887 31.1033 13.1612 30.5916 13.6731L28.6027 15.6621C28.3172 15.9477 27.8843 16.0323 27.5255 15.8734C27.2954 15.7715 27.0602 15.6743 26.8265 15.5843C26.4607 15.4436 26.215 15.0776 26.215 14.6734V11.8603C26.215 10.3481 24.9846 9.11775 23.4724 9.11775H19.2269C17.7145 9.11775 16.4843 10.3481 16.4843 11.8603V14.6734C16.4843 15.0776 16.2386 15.4436 15.8727 15.5843C15.6389 15.6743 15.4038 15.7715 15.1736 15.8734C14.8146 16.0323 14.382 15.9476 14.0965 15.6621L12.1076 13.6731C11.0383 12.6037 9.29826 12.6037 8.22892 13.6731L5.22693 16.6751C4.15759 17.7445 4.15759 19.4844 5.22693 20.5538L7.21595 22.5429C7.5013 22.8282 7.58626 23.261 7.42712 23.6198C7.32564 23.849 7.22837 24.0842 7.13802 24.3191C6.9974 24.6848 6.6313 24.9306 6.22712 24.9306H3.4138C1.9015 24.9306 0.671265 26.1609 0.671265 27.6731V31.9187C0.671265 33.4309 1.90162 34.6612 3.4138 34.6612H6.22689C6.63107 34.6612 6.99716 34.907 7.13779 35.2728C7.22814 35.5076 7.32529 35.7428 7.42689 35.9721C7.58591 36.3309 7.50095 36.7637 7.2156 37.0489L5.22658 39.0379C4.15724 40.1074 4.15724 41.8473 5.22658 42.9167L8.22857 45.9187C9.29791 46.9881 11.0379 46.9881 12.1072 45.9187L14.0961 43.9297C14.3816 43.6441 14.8145 43.5595 15.1733 43.7184C15.4042 43.8206 15.6395 43.9179 15.8722 44.0074C16.2381 44.1481 16.4838 44.5142 16.4838 44.9183V47.7315C16.4838 49.2437 17.7142 50.474 19.2264 50.474H23.472C24.9843 50.474 26.2145 49.2437 26.2145 47.7315V44.9183C26.2145 44.5142 26.4604 44.1481 26.8258 44.0075C27.059 43.9179 27.2943 43.8206 27.5252 43.7183C27.754 43.617 28.009 43.6149 28.2404 43.7008C28.4785 45.7923 29.2529 47.769 30.5175 49.4826C30.8058 49.8733 31.3561 49.9561 31.7466 49.668C32.1372 49.3797 32.2201 48.8295 31.932 48.439C30.615 46.6543 29.9188 44.5352 29.9188 42.3111C29.9188 36.6139 34.5538 31.9788 40.251 31.9788C45.9482 31.9788 50.5832 36.6139 50.5832 42.3111C50.5832 48.0083 45.9482 52.6434 40.251 52.6434C38.2739 52.6434 36.3526 52.0834 34.6949 51.0239C34.286 50.7624 33.7425 50.8819 33.4811 51.2911C33.2196 51.7001 33.3393 52.2436 33.7483 52.5049C35.6891 53.7454 37.9377 54.4012 40.251 54.4012C46.9174 54.4012 52.341 48.9777 52.341 42.3111C52.341 39.4097 51.3133 36.7439 49.6033 34.6579H53.5696C55.5994 34.6579 57.2508 33.0065 57.2508 30.9769C57.2508 30.2163 57.0189 29.5088 56.6221 28.9214C58.1802 28.4929 59.3285 27.0645 59.3285 25.3721C59.3285 24.2508 58.8239 23.2456 58.0306 22.5699C58.8242 21.8942 59.3288 20.8891 59.3288 19.7678ZM28.1692 41.8937C27.714 41.8488 27.248 41.9186 26.8135 42.1111C26.6094 42.2014 26.4015 42.2874 26.1953 42.3667C25.1555 42.7666 24.457 43.792 24.457 44.9182V47.7314C24.457 48.2744 24.0152 48.7161 23.4723 48.7161H19.2267C18.6837 48.7161 18.242 48.2743 18.242 47.7314V44.9182C18.242 43.792 17.5435 42.7666 16.5033 42.3665C16.2974 42.2874 16.0896 42.2015 15.8856 42.1111C14.8675 41.6599 13.6488 41.8911 12.8534 42.6866L10.8645 44.6755C10.4806 45.0595 9.85572 45.0595 9.47169 44.6755L6.4697 41.6735C6.0858 41.2896 6.0858 40.6649 6.4697 40.2808L8.45873 38.2918C9.25419 37.4963 9.48541 36.2778 9.03423 35.2597C8.94447 35.0571 8.85845 34.8492 8.77865 34.6418C8.3788 33.602 7.35341 32.9033 6.22701 32.9033H3.4138C2.87076 32.9033 2.42908 32.4615 2.42908 31.9186V27.673C2.42908 27.1299 2.87087 26.6883 3.4138 26.6883H6.22689C7.3533 26.6883 8.37869 25.9896 8.77841 24.9499C8.85822 24.7424 8.94423 24.5344 9.034 24.332C9.48529 23.3137 9.25396 22.0952 8.45861 21.2997L6.46958 19.3107C6.08568 18.9268 6.08568 18.3021 6.46958 17.9181L9.47158 14.9161C9.8556 14.532 10.4803 14.532 10.8644 14.9161L12.8533 16.9051C13.6487 17.7006 14.8672 17.9319 15.8854 17.4805C16.0889 17.3903 16.2968 17.3044 16.5034 17.2248C17.5432 16.8249 18.2418 15.7995 18.2418 14.6733V11.8602C18.2418 11.3171 18.6836 10.8754 19.2265 10.8754H23.4721C24.0151 10.8754 24.4568 11.3172 24.4568 11.8602V14.6733C24.4568 15.7995 25.1554 16.8249 26.1952 17.2248C26.4018 17.3044 26.6098 17.3903 26.8131 17.4805C27.8312 17.9317 29.05 17.7004 29.8453 16.905L31.8344 14.916C32.0087 14.7416 32.2374 14.6462 32.4728 14.6326V27.469C32.4728 29.1034 33.0352 30.6787 34.0402 31.9421C30.6328 33.9909 28.3132 37.6708 28.1692 41.8937ZM53.5699 32.9001H49.554C49.5531 32.9001 49.5522 32.9 49.5512 32.9H49.5484C48.4892 32.8985 47.6279 32.0365 47.6279 30.9769C47.6279 29.9163 48.4908 29.0535 49.5513 29.0535H53.5701C54.6306 29.0535 55.4935 29.9163 55.4935 30.9769C55.4935 32.0374 54.6305 32.9001 53.5699 32.9001ZM55.6477 27.2956H48.4667C47.4061 27.2956 46.5433 26.4328 46.5433 25.3722C46.5433 24.3117 47.4061 23.449 48.4667 23.449H55.6477C56.7082 23.449 57.5711 24.3118 57.5711 25.3724C57.5711 26.4329 56.7082 27.2956 55.6477 27.2956ZM55.6477 21.6912H48.4667C47.4061 21.6912 46.5433 20.8283 46.5433 19.7678C46.5433 18.7072 47.4061 17.8445 48.4667 17.8445H55.6477C56.7082 17.8445 57.5711 18.7072 57.5711 19.7678C57.5711 20.8283 56.7082 21.6912 55.6477 21.6912ZM55.6477 16.0867H48.4667C47.4061 16.0867 46.5433 15.2238 46.5433 14.1633C46.5433 13.1027 47.4061 12.24 48.4667 12.24H55.6477C56.7082 12.24 57.5711 13.1027 57.5711 14.1633C57.5711 15.2238 56.7082 16.0867 55.6477 16.0867Z" fill="#F1663E"/>
</g>
<defs>
<clipPath id="clip0_215_14">
<rect width="60" height="60" fill="white"/>
</clipPath>
</defs>
</svg>
