<svg width="60" height="60" viewBox="0 0 60 60" fill="none" xmlns="http://www.w3.org/2000/svg">
<g clip-path="url(#clip0_217_91)">
<path d="M12.03 24.3603H24.3105C24.7962 24.3603 25.1894 23.9666 25.1894 23.4814C25.1894 22.9957 24.7962 22.6021 24.3105 22.6021H12.03C11.5443 22.6021 11.1511 22.9957 11.1511 23.4814C11.1511 23.9666 11.5448 24.3603 12.03 24.3603Z" fill="#F1663E"/>
<path d="M12.03 29.9082H22.4488C22.934 29.9082 23.3277 29.515 23.3277 29.0293C23.3277 28.5441 22.934 28.1504 22.4488 28.1504H12.03C11.5443 28.1504 11.1511 28.5441 11.1511 29.0293C11.1511 29.515 11.5448 29.9082 12.03 29.9082Z" fill="#F1663E"/>
<path d="M12.03 35.4561H18.8292C19.3149 35.4561 19.7081 35.0628 19.7081 34.5772C19.7081 34.0919 19.3149 33.6982 18.8292 33.6982H12.03C11.5443 33.6982 11.1511 34.0919 11.1511 34.5772C11.1511 35.0628 11.5448 35.4561 12.03 35.4561Z" fill="#F1663E"/>
<path d="M12.03 41.0044H18.8292C19.3149 41.0044 19.7081 40.6112 19.7081 40.1255C19.7081 39.6403 19.3149 39.2466 18.8292 39.2466H12.03C11.5443 39.2466 11.1511 39.6403 11.1511 40.1255C11.1511 40.6112 11.5448 41.0044 12.03 41.0044Z" fill="#F1663E"/>
<path d="M12.03 46.5522H22.4488C22.934 46.5522 23.3277 46.159 23.3277 45.6733C23.3277 45.1881 22.934 44.7944 22.4488 44.7944H12.03C11.5443 44.7944 11.1511 45.1881 11.1511 45.6733C11.1511 46.159 11.5448 46.5522 12.03 46.5522Z" fill="#F1663E"/>
<path d="M12.03 52.1006H24.3105C24.7962 52.1006 25.1894 51.7069 25.1894 51.2217C25.1894 50.7365 24.7962 50.3428 24.3105 50.3428H12.03C11.5443 50.3428 11.1511 50.7365 11.1511 51.2217C11.1511 51.7069 11.5448 52.1006 12.03 52.1006Z" fill="#F1663E"/>
<path d="M2.92969 56.6818C2.92969 58.4469 4.36569 59.8829 6.13084 59.8829H23.909C24.3943 59.8829 24.7879 59.4893 24.7879 59.004C24.7879 58.5183 24.3943 58.1251 23.909 58.1251H6.13084C5.33524 58.1251 4.6875 57.4774 4.6875 56.6818V13.44H13.2857C15.0508 13.44 16.4864 12.004 16.4864 10.2388V1.64063H44.1637C44.9598 1.64063 45.6071 2.28791 45.6071 3.08396V25.676C44.762 25.2073 43.8149 24.8063 42.8248 24.5224V21.1492C42.8248 20.1183 41.9862 19.2797 40.9553 19.2797H37.3293C36.2989 19.2797 35.4603 20.1183 35.4603 21.1492V24.5224C34.4912 24.8003 33.5573 25.1876 32.6734 25.6788L30.1337 23.1391C29.4892 22.4946 28.4409 22.4946 27.7959 23.1391L24.9262 26.0093C24.2817 26.6538 24.2821 27.7021 24.9262 28.3466L27.4659 30.8863C26.9751 31.7702 26.5874 32.7041 26.31 33.6732H22.9363C21.9054 33.6732 21.0668 34.5113 21.0668 35.5422V39.1682C21.0668 40.1991 21.9054 41.0372 22.9363 41.0372H26.3096C26.5874 42.0068 26.9747 42.9401 27.4659 43.8241L24.9262 46.3638C24.2817 47.0083 24.2817 48.057 24.9262 48.7016L27.7959 51.5713C28.4418 52.2172 29.4874 52.2177 30.1333 51.5713L32.6734 49.0316C33.539 49.5127 34.4715 49.9046 35.4598 50.1875V53.5612C35.4598 54.5921 36.2984 55.4303 37.3293 55.4303H40.9553C41.9857 55.4303 42.8243 54.5921 42.8243 53.5612V50.1875C43.793 49.9101 44.7469 49.5114 45.6066 49.0339V56.6813C45.6066 57.4774 44.9593 58.1247 44.1637 58.1247H28.0111C27.5254 58.1247 27.1317 58.5179 27.1317 59.0036C27.1317 59.4888 27.5254 59.8825 28.0111 59.8825H44.1637C45.9289 59.8825 47.3649 58.4465 47.3649 56.6813V50.7853L47.998 51.4184C48.7272 52.1467 49.9128 52.1472 50.6416 51.4184L53.2055 48.854C53.9347 48.1252 53.9347 46.9396 53.2055 46.2109L50.8192 43.8246C51.3099 42.9406 51.6972 42.0068 51.975 41.0377H55.3483C56.3792 41.0377 57.2178 40.1991 57.2178 39.1682V35.5422C57.2178 34.5113 56.3792 33.6732 55.3488 33.6732H51.975C51.6972 32.7036 51.3099 31.7698 50.8192 30.8863L53.2055 28.4995C53.9347 27.7707 53.9347 26.5847 53.2055 25.8559L50.6416 23.292C49.9124 22.5632 48.7267 22.5632 47.998 23.292L47.3649 23.9251V3.08396C47.3649 1.31882 45.9289 -0.117188 44.1637 -0.117188H15.6075C15.3855 -0.117188 15.1575 -0.0311278 14.9858 0.140076L3.18695 11.9394C3.01575 12.1102 2.92969 12.3395 2.92969 12.5606V56.6818ZM49.2413 24.5353C49.2843 24.4918 49.3553 24.4918 49.3987 24.5353L51.9627 27.0992C51.9842 27.1207 51.9952 27.1473 51.9952 27.1779C51.9952 27.2086 51.9842 27.2347 51.9627 27.2567L49.2147 30.0046C48.8572 30.3622 48.7913 30.9142 49.054 31.3473C49.6684 32.358 50.1216 33.4511 50.4012 34.5951C50.5216 35.0872 50.9588 35.431 51.4646 35.431H55.3488C55.4101 35.431 55.46 35.4809 55.46 35.5422V39.1682C55.46 39.2295 55.4101 39.2799 55.3488 39.2799H51.4646C50.9588 39.2799 50.5216 39.6236 50.4012 40.1157C50.1216 41.2597 49.6684 42.3524 49.0536 43.364C48.7913 43.7971 48.8572 44.3487 49.2147 44.7062L51.9627 47.4542C52.0062 47.4977 52.0062 47.5681 51.9627 47.6116L49.3987 50.1756C49.3553 50.2191 49.2843 50.2186 49.2413 50.1756C47.3548 48.2891 51.0069 51.9412 46.4933 47.4276C46.1353 47.0701 45.5837 47.0042 45.1507 47.2669C44.1395 47.8817 43.0468 48.3349 41.9028 48.6141C41.4103 48.7345 41.0665 49.1717 41.0665 49.6775V53.5617C41.0665 53.623 41.0166 53.6729 40.9553 53.6729H37.3293C37.268 53.6729 37.2181 53.623 37.2181 53.5617V49.6775C37.2181 49.1717 36.8743 48.7345 36.3822 48.6141C35.2383 48.3344 34.1456 47.8813 33.1344 47.2669C32.7013 47.0037 32.1451 47.0733 31.7917 47.4276L28.965 50.2543L26.2436 47.5329L29.0708 44.7057C29.4278 44.3482 29.4938 43.7962 29.2306 43.3636C28.6203 42.3592 28.1649 41.267 27.8834 40.1157C27.7634 39.6236 27.3263 39.2799 26.8204 39.2799H22.9363C22.8749 39.2799 22.8251 39.23 22.8251 39.1686V35.5427C22.8251 35.4964 22.853 35.4566 22.8928 35.4401C22.9061 35.4342 22.9207 35.431 22.9363 35.431H26.8204C27.3249 35.431 27.763 35.089 27.8834 34.5956C28.163 33.4511 28.6162 32.3585 29.231 31.3473C29.4933 30.9147 29.4278 30.3631 29.0703 30.0051L26.2436 27.1779L28.9646 24.4565L31.7913 27.2828C32.1483 27.6412 32.7009 27.7076 33.1339 27.4439C34.1451 26.8296 35.2378 26.3764 36.3822 26.0967C36.8743 25.9768 37.2181 25.5391 37.2181 25.0338V21.1496C37.2181 21.0883 37.268 21.0379 37.3293 21.0379H40.9553C41.0166 21.0379 41.0665 21.0878 41.0665 21.1496V25.0338C41.0665 25.5391 41.4103 25.9768 41.9024 26.0967C43.0468 26.3764 44.1395 26.8296 45.1507 27.4439C45.5837 27.7071 46.1353 27.6412 46.4929 27.2832C47.4871 26.2894 46.9369 26.8392 49.2413 24.5353ZM14.7286 10.2388C14.7286 11.0344 14.0813 11.6817 13.2857 11.6817H5.93079L14.7286 2.88392V10.2388Z" fill="#F1663E"/>
<path d="M39.1424 30.9956C41.9417 30.9956 44.4498 32.8697 45.2412 35.5531C45.3786 36.0187 45.867 36.2846 46.333 36.1473C46.7986 36.01 47.0645 35.5211 46.9272 35.0555C45.9164 31.6301 42.7153 29.2378 39.142 29.2378C34.6664 29.2378 31.0249 32.8793 31.0249 37.3553C31.0249 41.8309 34.666 45.4724 39.142 45.4724C42.7153 45.4724 45.9169 43.0801 46.9272 39.6547C47.0645 39.1891 46.7986 38.7002 46.333 38.5629C45.8665 38.4256 45.3786 38.692 45.2412 39.1576C44.4498 41.8405 41.9417 43.7146 39.1424 43.7146C35.6355 43.7146 32.7827 40.8618 32.7827 37.3553C32.7827 33.8484 35.6355 30.9956 39.1424 30.9956Z" fill="#F1663E"/>
</g>
<defs>
<clipPath id="clip0_217_91">
<rect width="60" height="60" fill="white"/>
</clipPath>
</defs>
</svg>
