<svg width="60" height="60" viewBox="0 0 60 60" fill="none" xmlns="http://www.w3.org/2000/svg">
<g clip-path="url(#clip0_217_109)">
<path d="M44.7505 26.1595C45.2266 26.2565 45.6906 25.9496 45.788 25.4726C46.0053 24.4078 46.1154 23.3122 46.1154 22.2158C46.1154 13.303 38.8861 6.05176 30 6.05176C21.1139 6.05176 13.8846 13.303 13.8846 22.2158C13.8846 31.1285 21.1139 38.3797 30 38.3797C36.0568 38.3797 41.5469 35.024 44.3278 29.6221C44.5505 29.1894 44.3815 28.6576 43.95 28.4342C43.5187 28.2107 42.9884 28.3805 42.7657 28.813C40.2878 33.6262 35.3964 36.6163 30.0001 36.6163C22.0834 36.6163 15.6428 30.1562 15.6428 22.2156C15.6428 14.275 22.0834 7.81495 30.0001 7.81495C37.9168 7.81495 44.3574 14.275 44.3574 22.2156C44.3574 23.1935 44.2593 24.1702 44.0657 25.1189C43.9683 25.596 44.275 26.0619 44.7505 26.1595Z" fill="#F1663E"/>
<path d="M39.7801 18.9366C39.6765 18.6168 39.4006 18.384 39.0688 18.3363L33.3399 17.5132L30.7892 12.3025C30.4978 11.655 29.5023 11.6551 29.211 12.3025L26.6602 17.5131L20.9314 18.3362C20.2265 18.4142 19.9203 19.3643 20.4437 19.8414L24.596 23.8849L23.6062 29.6042C23.4622 30.2985 24.2665 30.8871 24.8828 30.5347L30 27.8229L35.1172 30.5347C35.7326 30.8871 36.5382 30.2985 36.3939 29.6042L35.404 23.8849L39.5564 19.8414C39.797 19.6074 39.8837 19.2564 39.7801 18.9366ZM33.8463 22.9444C33.6378 23.1474 33.5428 23.4405 33.5924 23.7278L34.3555 28.1368L30.4106 26.0463C30.1537 25.9102 29.8463 25.9102 29.5893 26.0463L25.6444 28.1368L26.4075 23.7278C26.4572 23.4405 26.3622 23.1474 26.1537 22.9444L22.9525 19.8271L27.3691 19.1925C27.6567 19.1511 27.9054 18.97 28.0335 18.7083L29.9999 14.6914L31.9663 18.7083C32.0944 18.9699 32.3431 19.1511 32.6308 19.1925L37.0473 19.8271L33.8463 22.9444Z" fill="#F1663E"/>
<path d="M54.6677 52.4075L46.0761 37.4815C49.8381 33.498 52.149 28.1226 52.149 22.2156C52.1488 9.96585 42.213 0 30 0C26.2424 0 22.5301 0.961178 19.2643 2.77969C18.8398 3.01609 18.6867 3.55276 18.9224 3.97856C19.158 4.40412 19.6931 4.55766 20.1175 4.32149C23.1229 2.64796 26.5402 1.76343 30 1.76343C41.2436 1.76343 50.3908 10.9384 50.3908 22.2158C50.3908 33.4932 41.2436 42.6682 30 42.6682C18.7564 42.6682 9.60923 33.4932 9.60923 22.2156C9.60923 16.1656 12.2588 10.4592 16.8788 6.55959C17.2503 6.24608 17.298 5.68983 16.9854 5.31736C16.6728 4.94478 16.1183 4.89672 15.7469 5.21048C10.7291 9.44583 7.85119 15.644 7.85119 22.2156C7.85119 28.1327 10.1698 33.5165 13.9432 37.5021L11.5099 41.7293C10.9268 42.7079 12.4697 43.6127 13.0324 42.611L15.2443 38.7683C17.8906 41.1441 21.1076 42.892 24.661 43.7775L17.0757 56.9551L15.1355 50.8299C14.998 50.3957 14.5531 50.1383 14.1093 50.2357L7.85061 51.6129L10.9811 46.1743C11.2238 45.7526 11.0798 45.2134 10.6594 44.9699C10.2388 44.7265 9.70135 44.8709 9.45863 45.2926L5.33216 52.4614C4.9407 53.0911 5.56234 53.9468 6.28173 53.7635L13.7027 52.1305L16.0032 59.3931C16.2043 60.1076 17.251 60.224 17.6022 59.5669L26.4767 44.1493C27.6243 44.3341 28.8008 44.4315 29.9997 44.4315C31.2084 44.4315 32.3942 44.3324 33.5509 44.1446L38.8809 53.4044C39.0437 53.6873 39.3392 53.8453 39.643 53.8453C39.7921 53.8453 39.9433 53.8072 40.0817 53.7271C40.5021 53.4835 40.6461 52.9444 40.4034 52.5227L35.3658 43.7708C38.9176 42.8809 42.1324 41.1291 44.7758 38.75L52.1489 51.5591L45.8901 50.1819C45.4464 50.0843 45.0016 50.3419 44.864 50.7761L42.9237 56.9013L42.4544 56.086C42.2117 55.6643 41.6741 55.5199 41.2537 55.7634C40.8333 56.0069 40.6893 56.546 40.932 56.9677L42.3971 59.5133C42.7485 60.1704 43.795 60.0538 43.9961 59.3394L46.2967 52.0769L53.7176 53.7099C54.4377 53.8925 55.0589 53.0373 54.6677 52.4075Z" fill="#F1663E"/>
</g>
<defs>
<clipPath id="clip0_217_109">
<rect width="60" height="60" fill="white"/>
</clipPath>
</defs>
</svg>
