<svg width="54" height="60" viewBox="0 0 54 60" fill="none" xmlns="http://www.w3.org/2000/svg">
<path d="M16.6711 18.1236C17.1562 18.1236 17.5495 17.7303 17.5495 17.2452V16.0923C17.5495 15.6072 17.1562 15.2139 16.6711 15.2139C16.186 15.2139 15.7927 15.6072 15.7927 16.0923V17.2452C15.7927 17.7303 16.186 18.1236 16.6711 18.1236Z" fill="#F1663E"/>
<path d="M24.239 18.1236C24.7241 18.1236 25.1174 17.7303 25.1174 17.2452V16.0923C25.1174 15.6072 24.7241 15.2139 24.239 15.2139C23.7539 15.2139 23.3606 15.6072 23.3606 16.0923V17.2452C23.3606 17.7303 23.7539 18.1236 24.239 18.1236Z" fill="#F1663E"/>
<path d="M20.4637 25.1022C22.1628 25.1022 23.545 23.72 23.545 22.021C23.545 21.5359 23.1517 21.1426 22.6666 21.1426C22.1815 21.1426 21.7882 21.5359 21.7882 22.021C21.7882 22.7512 21.1941 23.3455 20.4637 23.3455C19.7335 23.3455 19.1392 22.7513 19.1392 22.021C19.1392 21.5359 18.7459 21.1426 18.2608 21.1426C17.7757 21.1426 17.3824 21.5359 17.3824 22.021C17.3826 23.7201 18.7647 25.1022 20.4637 25.1022Z" fill="#F1663E"/>
<path d="M52.5213 49.2513C52.0436 49.1672 51.5879 49.4857 51.5035 49.9634C50.6582 54.7448 46.5141 58.2151 41.6497 58.2151C36.1314 58.2151 31.6419 53.7256 31.6419 48.2073C31.6419 42.689 36.1314 38.1995 41.6497 38.1995C46.5082 38.1995 50.6519 41.6659 51.5024 46.4417C51.5874 46.9193 52.0433 47.2373 52.5212 47.1525C52.9988 47.0675 53.3171 46.6113 53.232 46.1337C52.2321 40.5183 47.361 36.4427 41.6497 36.4427C40.589 36.4427 39.5611 36.5847 38.5829 36.849C37.9543 36.1938 37.1794 35.6984 36.3123 35.402L26.4814 32.0389V28.5278C29.0161 26.6563 30.1869 23.4166 30.1546 20.3639H31.0407C32.8745 20.3639 34.3665 18.872 34.3665 17.0381V15.2041C34.3665 13.8529 33.5562 12.6882 32.3962 12.1682V8.13976C32.3962 3.65153 28.7447 0 24.2565 0H16.9518C12.4635 0 8.812 3.65153 8.812 8.13976V12.0576C7.50425 12.5057 6.56109 13.7465 6.56109 15.2043V17.0382C6.56109 18.8721 8.05307 20.364 9.88691 20.364H10.7726C10.7402 23.4169 11.9113 26.6567 14.4462 28.5283V32.0387L4.61457 35.402C2.30487 36.1927 0.753047 38.3631 0.753047 40.803V43.546C0.753047 44.0311 1.14633 44.4244 1.63144 44.4244C2.11654 44.4244 2.50983 44.0311 2.50983 43.546V40.803C2.50983 39.1142 3.58428 37.6116 5.18342 37.0641L12.3095 34.6263V40.9872C12.3095 41.7011 13.1123 42.0628 13.6458 41.7367L16.5067 39.9888L17.742 42.1855L16.0394 58.2432H8.60915V44.9154C8.60915 44.4303 8.21586 44.037 7.73076 44.037C7.24565 44.037 6.85236 44.4303 6.85236 44.9154V58.2432H2.50971V47.3746C2.50971 46.8895 2.11643 46.4962 1.63132 46.4962C1.14621 46.4962 0.75293 46.8895 0.75293 47.3746V59.1216C0.75293 59.6067 1.14621 60 1.63132 60H41.6496C47.3678 60 52.2396 55.8912 53.2334 50.2693C53.3179 49.7915 52.999 49.3357 52.5213 49.2513ZM22.0245 36.4661L25.7603 33.6533L26.8612 34.027V39.4212L22.0245 36.4661ZM18.0066 39.0724L20.4637 37.5716L22.9207 39.0724L21.7689 41.1209H19.1585L18.0066 39.0724ZM16.2056 32.236V29.5429C18.5583 30.5664 22.3685 30.5664 24.7213 29.5429V32.2364L20.4637 35.4422L16.2056 32.236ZM32.6096 17.0381C32.6096 17.9033 31.9057 18.6071 31.0406 18.6071H30.155V13.635H31.0406C31.9057 13.635 32.6096 14.3389 32.6096 15.204V17.0381ZM10.7724 18.6073H9.88691C9.02176 18.6073 8.31787 17.9034 8.31787 17.0382V15.2043C8.31787 14.3391 9.02176 13.6352 9.88691 13.6352H10.7724V18.6073ZM12.5292 21.27V11.5236C14.7717 9.69451 16.0763 10.5895 18.2798 11.7521C18.7088 11.9783 19.2401 11.8141 19.4665 11.3851C19.6929 10.956 19.49 10.4864 19.0996 10.1984C16.0006 7.91138 13.0936 8.25313 10.5687 10.8745V8.13976C10.5687 4.62022 13.4321 1.75678 16.9516 1.75678H24.2563C27.7759 1.75678 30.6393 4.62022 30.6393 8.13976V10.8668C27.8773 8.18919 25.2871 8.01632 22.1278 10.2306C21.6352 10.5758 21.5158 10.9732 21.7314 11.4078C21.9471 11.8425 22.474 12.0199 22.9087 11.8043C25.0572 10.7382 26.0152 9.66641 28.3977 11.2743V21.27C28.3977 30.9125 12.5292 30.9125 12.5292 21.27ZM14.0662 34.027L15.1672 33.6533L18.9028 36.4661L14.0662 39.4212V34.027ZM19.4349 42.8777H21.4925L23.1215 58.2432H17.8059L19.4349 42.8777ZM24.8881 58.2432L23.1858 42.1855L24.4209 39.9889L27.2816 41.7367C27.8152 42.0628 28.618 41.7012 28.618 40.9872V34.6265L35.7437 37.0643C36.0825 37.1801 36.3998 37.3416 36.6913 37.5403C32.6752 39.4146 29.885 43.491 29.885 48.2074C29.885 52.449 32.1415 56.1731 35.517 58.2433H24.8881V58.2432Z" fill="#F1663E"/>
<path d="M47.8237 42.4005C46.6276 41.5036 44.9249 41.7469 44.0279 42.9428L40.4466 47.7178L39.0192 46.2904C37.9622 45.2335 36.2421 45.2334 35.1848 46.2904C34.1278 47.3475 34.1278 49.0676 35.1848 50.1248L38.8229 53.7628C39.9777 54.9175 41.91 54.8044 42.9091 53.4724L48.366 46.1965C49.2631 45.0005 49.0197 43.2977 47.8237 42.4005ZM46.9606 45.1424L41.5036 52.4183C41.0552 52.8902 40.4492 52.9437 40.0651 52.5205L36.4271 48.8826C36.0549 48.5104 36.0549 47.9048 36.427 47.5327C36.877 47.1605 37.3271 47.1605 37.777 47.5327L39.9205 49.6763C40.3904 50.0477 40.8317 50.0164 41.2443 49.5823L45.4333 43.9971C45.7491 43.5761 46.3486 43.4903 46.7697 43.8062C47.1908 44.1218 47.2764 44.7214 46.9606 45.1424Z" fill="#F1663E"/>
</svg>
