<svg width="59" height="59" viewBox="0 0 59 59" fill="none" xmlns="http://www.w3.org/2000/svg">
<path d="M53.9471 18.1906H51.4629V16.5931L53.0129 14.886C53.8176 13.9999 54.2606 12.8527 54.2606 11.6556V7.60733C54.2606 4.7766 51.9576 2.47363 49.1268 2.47363H46.7654C43.9347 2.47363 41.6317 4.77671 41.6317 7.60733V11.6556C41.6317 12.8527 42.0749 14 42.8794 14.886L44.4296 16.5933V18.1906H41.9454C39.5319 18.1906 37.5092 19.8919 37.0109 22.1581C36.7573 22.1226 36.4987 22.103 36.2355 22.103H33.3256V20.1489L35.1007 18.1942C35.9881 17.2168 36.4769 15.9514 36.4769 14.6311V10.0714C36.4769 6.94485 33.9334 4.40151 30.8069 4.40151C30.317 4.40151 29.92 4.79849 29.92 5.28847C29.92 5.77845 30.317 6.17543 30.8069 6.17543C32.9553 6.17543 34.703 7.92308 34.703 10.0714V14.631C34.703 15.5094 34.3778 16.3512 33.7875 17.0015L31.9596 19.0145C31.7144 19.1723 31.5519 19.4476 31.5519 19.761V22.9901C31.5519 23.4801 31.9489 23.8771 32.4389 23.8771H36.2357C38.3338 23.8771 40.0409 25.584 40.0409 27.6822V33.2478H18.9135V27.6822C18.9135 26.0464 19.9513 24.6486 21.4028 24.1118C21.471 24.0975 21.536 24.0748 21.5974 24.0458C21.952 23.9363 22.3285 23.877 22.7185 23.877H26.5154C27.0052 23.877 27.4023 23.48 27.4023 22.99V19.7609C27.4023 19.4476 27.2398 19.1722 26.9946 19.0144L25.1668 17.0014C24.5763 16.3511 24.251 15.5092 24.251 14.6309V10.0714C24.251 7.92319 25.9987 6.17543 28.1471 6.17543C28.6369 6.17543 29.034 5.77845 29.034 5.28847C29.034 4.79849 28.6369 4.40151 28.1471 4.40151C25.0205 4.40151 22.4771 6.94497 22.4771 10.0714V14.631C22.4771 15.9511 22.9659 17.2165 23.8533 18.1941L25.6282 20.1487V22.1029H22.7183C22.4704 22.1029 22.2268 22.1208 21.9875 22.1524C21.4871 19.889 19.466 18.1906 17.0545 18.1906H14.5703V16.5931L16.1203 14.886C16.925 13.9999 17.368 12.8527 17.368 11.6556V7.60733C17.368 4.7766 15.065 2.47363 12.2342 2.47363H9.87307C7.04233 2.47363 4.73937 4.77671 4.73937 7.60733V11.6556C4.73937 12.8527 5.18245 14 5.98713 14.886L7.53726 16.5932V18.1906H5.05304C2.26678 18.1906 0 20.4574 0 23.2436V28.9726C0 29.4626 0.397098 29.8596 0.886961 29.8596H14.6872C15.1771 29.8596 15.5742 29.4626 15.5742 28.9726C15.5742 28.4827 15.1771 28.0857 14.6872 28.0857H1.77392V23.2436C1.77392 21.4356 3.24489 19.9645 5.05304 19.9645H8.42423C8.91409 19.9645 9.31119 19.5675 9.31119 19.0776V16.2105C9.31119 15.902 9.15366 15.6303 8.91466 15.4714L7.30034 13.6936C6.79273 13.1346 6.51317 12.4109 6.51317 11.6558V7.60733C6.51317 5.75471 8.02033 4.24755 9.87296 4.24755H12.2343C14.087 4.24755 15.5942 5.75471 15.5942 7.60733V11.6556C15.5942 12.4108 15.3147 13.1346 14.8071 13.6935L13.1926 15.4714C12.9538 15.6303 12.7963 15.902 12.7963 16.2104V19.0774C12.7963 19.5674 13.1934 19.9644 13.6833 19.9644H17.0545C18.6649 19.9644 20.0069 21.1316 20.2813 22.6644C18.4229 23.5706 17.1394 25.4788 17.1394 27.6819V34.1345C17.1394 34.6244 17.5365 35.0214 18.0264 35.0214H40.9276C41.4176 35.0214 41.8146 34.6244 41.8146 34.1345V27.6819C41.8146 25.4958 40.5501 23.6004 38.7147 22.6859C38.9803 21.1427 40.3274 19.9644 41.9454 19.9644H45.3166C45.8066 19.9644 46.2035 19.5674 46.2035 19.0774V16.2104C46.2035 15.9018 46.046 15.6301 45.8069 15.4712L44.1927 13.6935C43.6851 13.1346 43.4056 12.4108 43.4056 11.6556V7.60733C43.4056 5.75471 44.9128 4.24755 46.7654 4.24755H49.1268C50.9794 4.24755 52.4867 5.75471 52.4867 7.60733V11.6556C52.4867 12.4108 52.2071 13.1346 51.6995 13.6935L50.0852 15.4714C49.8462 15.6303 49.6888 15.902 49.6888 16.2104V19.0774C49.6888 19.5674 50.0858 19.9644 50.5758 19.9644H53.947C55.755 19.9644 57.2261 21.4354 57.2261 23.2435V28.0856H44.4653C43.9754 28.0856 43.5784 28.4825 43.5784 28.9725C43.5784 29.4625 43.9754 29.8595 44.4653 29.8595H58.113C58.603 29.8595 59 29.4625 59 28.9725V23.2435C59.0001 20.4574 56.7333 18.1906 53.9471 18.1906Z" fill="white"/>
<path d="M38.4199 46.2628C38.3176 45.9473 38.0476 45.7154 37.7201 45.6615L32.8749 44.8662L30.6213 40.5039C30.4691 40.2092 30.1651 40.0239 29.8333 40.0239C29.5016 40.0239 29.1976 40.209 29.0453 40.5039L26.7917 44.8662L21.9465 45.6615C21.6192 45.7154 21.3492 45.9472 21.2466 46.2628C21.1441 46.5784 21.2262 46.9246 21.4594 47.1606L24.9116 50.6519L24.1708 55.5056C24.1208 55.8335 24.2578 56.1621 24.5263 56.3569C24.6807 56.4692 24.8637 56.5264 25.0477 56.5264C25.1835 56.5264 25.3199 56.4952 25.4458 56.432L29.8331 54.2275L34.2204 56.432C34.5169 56.5809 34.8717 56.5521 35.1399 56.3569C35.4084 56.1621 35.5454 55.8335 35.4954 55.5056L34.7544 50.6519L38.2066 47.1606C38.4404 46.9246 38.5225 46.5784 38.4199 46.2628ZM33.1802 49.7214C32.983 49.9208 32.8919 50.2018 32.934 50.4788L33.4831 54.0757L30.2317 52.4422C29.981 52.3163 29.6858 52.3163 29.4353 52.4422L26.1838 54.0757L26.7328 50.4788C26.7751 50.2016 26.6838 49.9206 26.4867 49.7214L23.928 47.1339L27.5187 46.5446C27.7954 46.4991 28.0344 46.3254 28.163 46.0764L29.8332 42.8435L31.5033 46.0764C31.632 46.3254 31.8709 46.4991 32.1476 46.5446L35.7383 47.1339L33.1802 49.7214Z" fill="white"/>
<path d="M57.8362 39.7411C57.7336 39.4256 57.4639 39.1936 57.1366 39.1398L52.2914 38.3445L50.0377 33.9822C49.8855 33.6875 49.5815 33.5022 49.2497 33.5022C48.9178 33.5022 48.614 33.6873 48.4617 33.9822L46.2081 38.3445L41.3628 39.1398C41.0354 39.1936 40.7654 39.4255 40.6629 39.7411C40.5603 40.0566 40.6424 40.403 40.8757 40.6389L44.328 44.1302L43.5871 48.984C43.5371 49.3119 43.6741 49.6405 43.9426 49.8353C44.2111 50.0303 44.5658 50.0595 44.862 49.9103L49.2494 47.7059L53.6367 49.9103C53.7625 49.9736 53.899 50.0048 54.0347 50.0048C54.2189 50.0048 54.4019 49.9477 54.5562 49.8353C54.8246 49.6405 54.9617 49.3119 54.9117 48.984L54.1707 44.1302L57.623 40.6389C57.8567 40.403 57.9388 40.0566 57.8362 39.7411ZM52.5965 43.1998C52.3993 43.3991 52.3082 43.6802 52.3503 43.9572L52.8994 47.5543L49.648 45.9207C49.5226 45.8578 49.3863 45.8262 49.2497 45.8262C49.1132 45.8262 48.9767 45.8578 48.8515 45.9207L45.6 47.5543L46.1491 43.9572C46.1913 43.6799 46.1001 43.399 45.903 43.1998L43.3444 40.6124L46.9351 40.0231C47.2119 39.9776 47.4508 39.8039 47.5794 39.5549L49.2495 36.322L50.9197 39.5549C51.0484 39.8039 51.2873 39.9776 51.564 40.0231L55.1546 40.6124L52.5965 43.1998Z" fill="white"/>
<path d="M19.0037 39.7412C18.9013 39.4256 18.6312 39.1936 18.3038 39.1398L13.4586 38.3445L11.205 33.9822C11.0526 33.6875 10.7488 33.5022 10.4169 33.5022C10.085 33.5022 9.78115 33.6873 9.62881 33.9822L7.37539 38.3446L2.53024 39.1399C2.20286 39.1938 1.93286 39.4256 1.8303 39.7412C1.72775 40.0567 1.80991 40.4031 2.04314 40.639L5.49546 44.1303L4.75461 48.9841C4.7046 49.312 4.84162 49.6406 5.11011 49.8354C5.37849 50.0304 5.73319 50.0596 6.02957 49.9105L10.4169 47.706L14.8041 49.9105C14.9299 49.9737 15.0664 50.0049 15.2021 50.0049C15.3862 50.0049 15.5693 49.9478 15.7236 49.8354C15.9921 49.6406 16.1291 49.312 16.0791 48.9841L15.3382 44.1303L18.7904 40.639C19.024 40.403 19.1063 40.0567 19.0037 39.7412ZM13.7638 43.1998C13.5666 43.3991 13.4753 43.6802 13.5176 43.9572L14.0666 47.5543L10.8153 45.9207C10.69 45.8577 10.5536 45.8262 10.417 45.8262C10.2805 45.8262 10.144 45.8578 10.0188 45.9207L6.7673 47.5543L7.31639 43.9572C7.35869 43.6799 7.26742 43.399 7.07025 43.1998L4.51204 40.6124L8.10275 40.0231C8.37943 39.9776 8.61843 39.8039 8.74715 39.5549L10.4172 36.322L12.0873 39.5549C12.2161 39.8039 12.455 39.9776 12.7317 40.0231L16.3224 40.6124L13.7638 43.1998Z" fill="white"/>
</svg>
