<svg width="59" height="59" viewBox="0 0 59 59" fill="none" xmlns="http://www.w3.org/2000/svg">
<g clip-path="url(#clip0_200_7363)">
<path d="M58.7596 25.1625L48.8846 12.3346C48.5191 11.8601 47.8524 11.7431 47.3469 12.0645L40.9712 16.1193H32.6559C32.5483 16.1193 32.4412 16.1422 32.3377 16.1724L25.8904 18.0283L19.2005 16.1985L12.7001 12.0645C12.2031 11.7485 11.5487 11.8556 11.1791 12.3139L0.256582 25.8431C-0.135935 26.3292 -0.0711156 27.0391 0.402426 27.4465L6.12723 32.3732L11.2633 39.2945C9.76117 40.8947 9.79043 43.4186 11.3533 44.9819C12.0461 45.6742 12.927 46.0654 13.8331 46.1563C13.8016 46.3616 13.7854 46.57 13.7854 46.7815C13.7854 47.8736 14.2107 48.9003 14.9827 49.6723C15.7552 50.4447 16.7819 50.8701 17.8739 50.8701C17.8888 50.8701 17.9032 50.8692 17.9176 50.8688C17.9172 50.8967 17.9158 50.9241 17.9158 50.952C17.9158 52.0441 18.3412 53.0708 19.1132 53.8432C19.8856 54.6152 20.9123 55.0406 22.0044 55.0406C22.22 55.0406 22.4334 55.023 22.6427 54.9906C22.7313 55.8999 23.1234 56.7849 23.8184 57.4799C24.6152 58.2771 25.6622 58.6754 26.7092 58.6754C27.7562 58.6754 28.8032 58.2771 29.6004 57.4799L30.2256 56.8546L30.4881 57.0662C31.2785 57.8319 32.3048 58.2145 33.3311 58.2145C34.3781 58.2145 35.4251 57.8161 36.2219 57.0189C37.0353 56.2056 37.4336 55.132 37.417 54.0638C38.4847 54.08 39.5587 53.6821 40.3721 52.8692C41.1846 52.0562 41.583 50.9835 41.5672 49.9158C42.6795 49.9334 43.7346 49.5062 44.5219 48.7189C45.3353 47.9055 45.7337 46.832 45.717 45.7638C46.7856 45.78 47.8587 45.3821 48.6721 44.5687C50.0603 43.1805 50.2391 41.0347 49.2096 39.4506L52.9597 31.5967L58.5976 26.7452C59.0635 26.3441 59.1346 25.6491 58.7596 25.1625ZM12.3301 14.5713L17.0043 17.5435L6.8362 29.9312L2.76158 26.4242L12.3301 14.5713ZM12.9895 40.8357L14.4003 39.425C14.443 39.3822 14.488 39.3417 14.5339 39.3039C14.8099 39.0788 15.1439 38.9447 15.4977 38.9127C15.5076 38.9118 15.5179 38.9118 15.5278 38.9114C15.5783 38.9073 15.6287 38.9046 15.6795 38.9051C16.163 38.9118 16.6122 39.1094 16.9453 39.461C17.5989 40.152 17.5638 41.2809 16.867 41.9777L15.499 43.3457C14.8072 44.0375 13.6814 44.0375 12.9895 43.3457C12.2977 42.6534 12.2977 41.5276 12.9895 40.8357ZM16.619 48.0361C16.2836 47.7012 16.0991 47.2555 16.0991 46.7815C16.0991 46.3075 16.2836 45.8619 16.619 45.5266L19.3544 42.7911C19.8784 42.2671 20.7021 42.1235 21.3719 42.4427C22.0624 42.7717 22.4509 43.5212 22.3496 44.2752C22.2956 44.6776 22.1084 45.0566 21.8212 45.3443L19.1289 48.0361C18.7936 48.3714 18.3479 48.556 17.8739 48.556C17.4 48.556 16.9543 48.3714 16.619 48.0361ZM20.7494 52.2066C20.414 51.8717 20.2295 51.426 20.2295 50.952C20.2295 50.478 20.414 50.0324 20.7494 49.6971L23.4844 46.9616C24.0448 46.4016 24.9438 46.281 25.6298 46.6803C26.2563 47.0449 26.5845 47.7606 26.4769 48.4736C26.4179 48.8657 26.2316 49.2343 25.9512 49.5148L23.2593 52.2066C22.924 52.5419 22.4784 52.7265 22.0044 52.7265C21.5304 52.7265 21.0847 52.5419 20.7494 52.2066ZM25.4542 55.8436C24.7623 55.1518 24.7623 54.026 25.4542 53.3341L26.8649 51.9234C26.9077 51.8807 26.9523 51.8406 26.9982 51.8028C26.9995 51.8019 27.0004 51.801 27.0013 51.8001C27.2309 51.6137 27.5005 51.489 27.7882 51.4346C27.7949 51.4337 27.8017 51.4328 27.8084 51.4319C27.8579 51.4229 27.9083 51.4157 27.9588 51.4112C27.979 51.4094 27.9993 51.4094 28.02 51.408C28.0614 51.4058 28.1023 51.4031 28.1442 51.4035C28.6272 51.4103 29.0769 51.6074 29.41 51.9594C29.4509 52.0026 29.4892 52.0477 29.5243 52.094C30.0564 52.7895 29.9848 53.8225 29.3245 54.4833L27.9637 55.8441C27.2718 56.5359 26.1461 56.5355 25.4542 55.8436ZM47.0359 42.9324C46.344 43.6247 45.2183 43.6243 44.5264 42.9324C44.5012 42.9072 44.4746 42.8838 44.4476 42.8618L37.0087 35.3445C36.559 34.8903 35.8266 34.8867 35.3725 35.3364C34.9183 35.7857 34.9147 36.518 35.3639 36.9722L42.8834 44.57C42.8843 44.5709 42.8852 44.5718 42.8861 44.5727C43.578 45.2646 43.578 46.3908 42.8861 47.0827C42.5508 47.418 42.1051 47.6026 41.6311 47.6026C41.1567 47.6026 40.7111 47.418 40.3762 47.0827L35.3459 42.0002C34.8967 41.546 34.1643 41.5424 33.7101 41.9917C33.2559 42.4413 33.2523 43.1737 33.7016 43.6279L38.6548 48.6325C38.68 48.664 38.7071 48.6942 38.7359 48.723C39.4277 49.4148 39.4277 50.5411 38.7359 51.2329C38.0436 51.9248 36.9173 51.9243 36.2255 51.2325L33.4801 48.4583C33.0304 48.0041 32.298 48.0001 31.8439 48.4497C31.3897 48.899 31.3861 49.6313 31.8353 50.0855L34.5042 52.7818C34.5294 52.8133 34.5564 52.8439 34.5856 52.8728C35.2775 53.5646 35.2775 54.6908 34.5856 55.3827C33.8938 56.075 32.768 56.0746 32.0761 55.3827C31.9965 55.303 31.9028 55.2418 31.8137 55.1734C31.7381 55.1158 31.7183 55.0757 31.7561 54.9839C31.7943 54.8907 31.8515 54.8065 31.8898 54.7129C31.9321 54.6085 31.9663 54.5009 31.9996 54.3929C32.177 53.8212 32.2292 53.2063 32.1495 52.613C31.9965 51.4746 31.3703 50.4474 30.4214 49.7974C29.9087 49.4468 29.3155 49.2168 28.7006 49.1303C28.9986 47.8159 28.6407 46.3908 27.7098 45.4073C26.9437 44.5979 25.9088 44.1438 24.7957 44.1284C24.7551 44.128 24.7146 44.128 24.6737 44.1284C24.6984 43.0661 24.3122 42.0106 23.5798 41.2368C22.8133 40.4274 21.7784 39.9733 20.6657 39.958C20.3348 39.9534 20.0008 39.9886 19.6785 40.0628C19.5408 39.1045 19.0578 38.2177 18.3263 37.5835C17.5994 36.9542 16.6851 36.6049 15.7115 36.5914C14.6865 36.5765 13.6796 36.9547 12.9184 37.642L8.44633 31.6161L19.1451 18.582L22.5549 19.5146L18.1017 27.3726C17.5633 28.3229 17.4274 29.4257 17.7186 30.4781C18.0099 31.531 18.6932 32.4069 19.6434 32.9453C19.7028 32.9791 19.7627 33.011 19.8235 33.0416C19.828 33.0439 19.8325 33.0461 19.8374 33.0484C19.9972 33.1281 20.1615 33.1965 20.3281 33.2541C21.1037 33.5228 21.9414 33.5521 22.7493 33.3288C23.8018 33.0376 24.6777 32.3538 25.2161 31.404L28.11 26.2973L33.2771 26.6637L47.0363 40.4225C47.7278 41.1148 47.7278 42.2406 47.0359 42.9324ZM47.5153 37.6294L34.6077 24.7223C34.5834 24.6975 34.5577 24.6741 34.5312 24.652C34.3453 24.4972 34.1148 24.4036 33.8717 24.3865L27.5451 23.9377C27.1075 23.9075 26.6727 24.1402 26.4567 24.5215L23.2031 30.2634C22.9695 30.6757 22.5891 30.9724 22.1322 31.0989C21.6758 31.2253 21.1968 31.1659 20.7841 30.9323C20.3717 30.6987 20.0751 30.3183 19.9486 29.8614C19.8221 29.4046 19.8811 28.9256 20.1152 28.5133L24.4585 20.8479L26.2185 20.3415C26.2302 20.3379 26.2415 20.3334 26.2532 20.3298L32.822 18.433H40.7588L50.6671 31.0286L47.5153 37.6294ZM52.1827 29.2128L43.0198 17.5584L47.6962 14.5843L56.2582 25.7058L52.1827 29.2128Z" fill="white"/>
<path d="M35.7438 13.9469C36.04 13.9469 36.3362 13.8339 36.5622 13.608L44.4647 5.70541C44.9167 5.25348 44.9167 4.52111 44.4647 4.06918C44.0128 3.61724 43.2804 3.61724 42.8285 4.06918L34.9259 11.9717C34.474 12.4237 34.474 13.156 34.9259 13.608C35.1519 13.8339 35.4481 13.9469 35.7438 13.9469Z" fill="white"/>
<path d="M22.4379 13.608C22.6638 13.8339 22.96 13.9469 23.2562 13.9469C23.5519 13.9469 23.8481 13.8339 24.0741 13.608C24.526 13.156 24.526 12.4237 24.0741 11.9717L16.1715 4.06918C15.7196 3.61724 14.9872 3.61724 14.5353 4.06918C14.0834 4.52111 14.0834 5.25348 14.5353 5.70541L22.4379 13.608Z" fill="white"/>
<path d="M29.5 13.947C30.1387 13.947 30.6568 13.4289 30.6568 12.7901V6.25011C30.6568 5.61137 30.1387 5.09326 29.5 5.09326C28.8612 5.09326 28.3431 5.61137 28.3431 6.25011V12.7901C28.3431 13.4289 28.8612 13.947 29.5 13.947Z" fill="white"/>
<path d="M28.4323 2.0571C28.6159 2.50229 29.0737 2.79442 29.5567 2.76922C30.0338 2.74446 30.4529 2.42216 30.6006 1.96798C30.7487 1.51019 30.5875 0.988485 30.204 0.696798C29.8128 0.398809 29.2673 0.382154 28.8581 0.652685C28.4017 0.954275 28.2248 1.55475 28.4323 2.0571Z" fill="white"/>
</g>
<defs>
<clipPath id="clip0_200_7363">
<rect width="59" height="59" fill="white"/>
</clipPath>
</defs>
</svg>
