<svg width="59" height="59" viewBox="0 0 59 59" fill="none" xmlns="http://www.w3.org/2000/svg">
<g clip-path="url(#clip0_200_7373)">
<path d="M40.7057 25.3361C38.716 22.744 36.8244 20.278 35.7058 17.4478C37.0263 16.8645 37.9505 15.5432 37.9505 14.0094C37.9505 12.428 36.9681 11.0726 35.5821 10.5189C35.804 10.081 36.1758 9.65534 36.6806 9.09911C37.7963 7.86967 39.1848 6.33959 39.3256 3.3496C39.3453 2.93176 39.1369 2.53605 38.7812 2.31572C37.5907 1.57834 36.6027 1.76744 35.7308 1.93406C35.1733 2.04077 34.6467 2.14137 33.9348 2.05345C33.2233 1.96541 32.8837 1.69173 32.3697 1.27746C31.7615 0.787368 31.0046 0.177317 29.6414 0.008729C29.5475 -0.00290967 29.4524 -0.00290967 29.3585 0.008729C27.9953 0.177317 27.2384 0.787368 26.6302 1.27746C26.1161 1.69173 25.7765 1.96541 25.0651 2.05345C24.3534 2.14172 23.8267 2.04077 23.2692 1.93406C22.3974 1.76732 21.4094 1.57834 20.2188 2.31572C19.8632 2.53605 19.6547 2.93176 19.6744 3.3496C19.8152 6.33959 21.2037 7.86967 22.3194 9.09911C22.8241 9.65534 23.196 10.081 23.4179 10.5189C22.0318 11.0726 21.0495 12.428 21.0495 14.0094C21.0495 15.5163 21.9414 16.818 23.2248 17.4165C22.2438 19.9067 20.6665 22.12 19.2292 24.0343C18.847 24.5433 18.9498 25.2656 19.4587 25.6477C19.6661 25.8035 19.9089 25.8786 20.1498 25.8786C20.5 25.8786 20.8458 25.7197 21.0721 25.4181C22.6951 23.2566 24.4866 20.7278 25.5538 17.7672H33.3632C34.5795 21.139 36.7615 23.9829 38.8774 26.7395C42.1986 31.066 45.6328 35.5399 45.6328 42.3287C45.6328 55.2954 34.3507 56.6954 29.5 56.6954C24.6493 56.6954 13.3672 55.2955 13.3672 42.3287C13.3672 39.3401 14.0236 36.5545 15.3739 33.8126C15.6551 33.2416 15.4201 32.5509 14.8492 32.2697C14.2785 31.9887 13.5875 32.2234 13.3063 32.7944C11.7964 35.8603 11.0625 38.9789 11.0625 42.3287C11.0625 45.35 11.628 48.0353 12.7432 50.3099C13.763 52.39 15.2456 54.14 17.1499 55.5114C21.1537 58.3948 26.0758 59.0001 29.5 59.0001C32.9242 59.0001 37.8463 58.3949 41.8501 55.5114C43.7544 54.14 45.237 52.39 46.2568 50.3099C47.372 48.0353 47.9375 45.35 47.9375 42.3287C47.9375 34.7573 44.2611 29.9678 40.7057 25.3361ZM22.0668 4.08687C22.2598 4.09056 22.4952 4.13262 22.836 4.19773C23.4777 4.32045 24.2761 4.47348 25.348 4.34073C26.7113 4.17215 27.4682 3.5621 28.0764 3.072C28.5552 2.6862 28.8826 2.42231 29.5 2.31676C30.1174 2.42231 30.4448 2.6862 30.9236 3.072C31.5318 3.5621 32.2887 4.17215 33.652 4.34073C34.7239 4.47348 35.5224 4.32045 36.164 4.19773C36.5048 4.13251 36.7402 4.09045 36.9332 4.08687C36.6557 5.69727 35.8354 6.60106 34.9739 7.55036C34.297 8.29627 33.5524 9.11985 33.2188 10.2517H25.7812C25.4476 9.11985 24.703 8.29627 24.0261 7.55047C23.1646 6.60106 22.3443 5.69716 22.0668 4.08687ZM24.8072 12.5563H34.1928C34.994 12.5563 35.6458 13.2081 35.6458 14.0092C35.6458 14.8089 34.9965 15.4595 34.1975 15.462C34.1957 15.462 34.194 15.4622 34.1921 15.4622H24.8071C24.0059 15.4622 23.3541 14.8104 23.3541 14.0092C23.3541 13.2081 24.006 12.5563 24.8072 12.5563Z" fill="white"/>
<path d="M24.8906 31.4695C22.9844 31.4695 21.4336 33.0203 21.4336 34.9265C21.4336 36.8327 22.9844 38.3835 24.8906 38.3835C26.7968 38.3835 28.3477 36.8327 28.3477 34.9265C28.3477 33.0203 26.7968 31.4695 24.8906 31.4695ZM24.8906 36.0789C24.2552 36.0789 23.7383 35.5619 23.7383 34.9265C23.7383 34.2911 24.2552 33.7742 24.8906 33.7742C25.526 33.7742 26.043 34.2911 26.043 34.9265C26.043 35.5619 25.526 36.0789 24.8906 36.0789Z" fill="white"/>
<path d="M30.6523 44.1453C30.6523 46.0515 32.2032 47.6023 34.1094 47.6023C36.0156 47.6023 37.5664 46.0515 37.5664 44.1453C37.5664 42.2391 36.0156 40.6882 34.1094 40.6882C32.2032 40.6882 30.6523 42.2391 30.6523 44.1453ZM35.2617 44.1453C35.2617 44.7807 34.7448 45.2976 34.1094 45.2976C33.474 45.2976 32.957 44.7807 32.957 44.1453C32.957 43.5099 33.474 42.9929 34.1094 42.9929C34.7448 42.9929 35.2617 43.5099 35.2617 44.1453Z" fill="white"/>
<path d="M34.068 31.6239C33.517 31.3056 32.8122 31.4944 32.4939 32.0456L24.5102 45.8737C24.1919 46.4249 24.3808 47.1297 24.932 47.4478C25.1135 47.5527 25.3115 47.6025 25.5071 47.6025C25.9053 47.6025 26.2927 47.3958 26.5061 47.0261L34.4897 33.198C34.808 32.6468 34.6191 31.942 34.068 31.6239Z" fill="white"/>
<path d="M17.0422 30.0291C17.6787 30.0291 18.1946 29.5131 18.1946 28.8767C18.1946 28.2403 17.6787 27.7244 17.0422 27.7244H17.0414C16.405 27.7244 15.8895 28.2403 15.8895 28.8767C15.8895 29.5131 16.4059 30.0291 17.0422 30.0291Z" fill="white"/>
</g>
<defs>
<clipPath id="clip0_200_7373">
<rect width="59" height="59" fill="white"/>
</clipPath>
</defs>
</svg>
