<svg width="45" height="45" viewBox="0 0 45 45" fill="none" xmlns="http://www.w3.org/2000/svg">
<path d="M23.0876 24.5589C23.0043 24.5409 22.9189 24.5376 22.8345 24.5502C21.9894 24.4518 21.3518 23.7368 21.3504 22.8862C21.3504 22.4786 21.0199 22.1481 20.6122 22.1481C20.2046 22.1481 19.8741 22.4786 19.8741 22.8862C19.8763 24.3066 20.8263 25.5508 22.1959 25.9267V26.6648C22.1959 27.0724 22.5264 27.4029 22.934 27.4029C23.3417 27.4029 23.6722 27.0724 23.6722 26.6648V25.9714C25.2529 25.6405 26.3273 24.1682 26.1612 22.5618C25.9947 20.9555 24.6413 19.7347 23.0263 19.7344C22.1007 19.7344 21.3504 18.984 21.3504 18.0584C21.3504 17.1329 22.1007 16.3825 23.0263 16.3825C23.9518 16.3825 24.7022 17.1329 24.7022 18.0584C24.7022 18.4661 25.0327 18.7966 25.4403 18.7966C25.848 18.7966 26.1785 18.4661 26.1785 18.0584C26.1763 16.567 25.1315 15.2807 23.6722 14.9729V14.3011C23.6722 13.8935 23.3417 13.563 22.934 13.563C22.5264 13.563 22.1959 13.8935 22.1959 14.3011V15.018C20.6728 15.4339 19.6925 16.9127 19.9022 18.4776C20.112 20.0425 21.4473 21.2106 23.0263 21.2103C23.9396 21.2103 24.6846 21.9416 24.7011 22.8545C24.7181 23.7674 24.0001 24.5257 23.0876 24.5589Z" fill="#F1663E"/>
<path d="M12.3228 20.5293C12.3228 26.4408 17.1148 31.2329 23.0264 31.2329C28.9379 31.2329 33.73 26.4408 33.73 20.5293C33.73 14.6178 28.9379 9.82568 23.0264 9.82568C17.1177 9.83217 12.3296 14.6206 12.3228 20.5293ZM23.0264 11.3019C28.1226 11.3019 32.2537 15.433 32.2537 20.5293C32.2537 25.6256 28.1226 29.7566 23.0264 29.7566C17.9301 29.7566 13.799 25.6256 13.799 20.5293C13.8048 15.4355 17.9326 11.3077 23.0264 11.3019Z" fill="#F1663E"/>
<path d="M37.3686 33.0527L31.5865 35.7847C30.7882 34.2998 29.2568 33.3548 27.5715 33.3072L22.2337 33.1605C21.3885 33.1363 20.5592 32.9223 19.8078 32.5341L19.2646 32.2526C16.4837 30.803 13.1689 30.8066 10.3908 32.262L10.4247 31.0315C10.4359 30.6239 10.1148 30.2844 9.70713 30.2732L3.85399 30.1121C3.44636 30.1009 3.10721 30.4221 3.09604 30.8297L2.74247 43.6742C2.7313 44.0818 3.05243 44.4213 3.46006 44.4325L9.3132 44.5936H9.33338C9.73344 44.5936 10.0607 44.2753 10.0715 43.8756L10.0884 43.2611L11.609 42.4469C12.2059 42.1258 12.9037 42.0494 13.5556 42.2339L22.6359 44.7824C22.6518 44.7871 22.6677 44.7907 22.6839 44.7943C23.3402 44.9316 24.0091 45.0005 24.6795 45.0001C26.0995 45.0008 27.503 44.6949 28.7936 44.1023C28.8253 44.0879 28.856 44.071 28.8852 44.0519L42.0508 35.536C42.3787 35.3237 42.4847 34.893 42.2926 34.5528C41.3152 32.8185 39.1473 32.1578 37.3686 33.0527ZM4.23855 42.9771L4.55139 31.6082L8.92863 31.7286L8.61579 43.0979L4.23855 42.9771ZM28.1287 42.7839C26.5252 43.5076 24.7343 43.7073 23.0108 43.3552L13.955 40.8132C12.9357 40.5252 11.8448 40.6445 10.9124 41.1458L10.1353 41.5621L10.3433 34.0031C12.8056 32.3654 15.9636 32.1971 18.586 33.5634L19.1291 33.8449C20.0784 34.3351 21.1254 34.6054 22.1933 34.6364L27.5315 34.7831C29.0308 34.8263 30.3041 35.8939 30.6083 37.3629L22.6572 37.1434C22.2496 37.1323 21.9104 37.4538 21.8989 37.861C21.8877 38.2687 22.2092 38.6082 22.6165 38.6193L31.3911 38.8608H31.4117C31.8114 38.8605 32.1383 38.5422 32.1491 38.1429C32.1581 37.8221 32.1343 37.501 32.0777 37.1852L38.0084 34.383C38.0141 34.3805 38.0199 34.3776 38.0257 34.3747C38.8669 33.9491 39.884 34.0914 40.576 34.7319L28.1287 42.7839Z" fill="#F1663E"/>
<path d="M23.7643 7.75036V0.73813C23.7643 0.330501 23.4338 0 23.0262 0C22.6186 0 22.2881 0.330501 22.2881 0.73813V7.75036C22.2881 8.15799 22.6186 8.48849 23.0262 8.48849C23.4338 8.48849 23.7643 8.15799 23.7643 7.75036Z" fill="#F1663E"/>
<path d="M29.3005 7.75014V4.42856C29.3005 4.02093 28.97 3.69043 28.5623 3.69043C28.1547 3.69043 27.8242 4.02093 27.8242 4.42856V7.75014C27.8242 8.15777 28.1547 8.48827 28.5623 8.48827C28.97 8.48827 29.3005 8.15777 29.3005 7.75014Z" fill="#F1663E"/>
<path d="M18.2282 7.75014V4.42856C18.2282 4.02093 17.8977 3.69043 17.4901 3.69043C17.0825 3.69043 16.752 4.02093 16.752 4.42856V7.75014C16.752 8.15777 17.0825 8.48827 17.4901 8.48827C17.8977 8.48827 18.2282 8.15777 18.2282 7.75014Z" fill="#F1663E"/>
</svg>
