<svg width="45" height="45" viewBox="0 0 45 45" fill="none" xmlns="http://www.w3.org/2000/svg">
<path d="M38.7633 18.6015H38.6519V15.8725C38.6519 7.10638 31.5456 0 22.7794 0C14.0131 0 6.90684 7.10638 6.90684 15.8725V18.6015H6.23857C3.78805 18.6015 1.89451 20.7735 1.89451 23.2797V30.2413C1.83279 32.6704 3.75202 34.6896 6.18111 34.7514C6.2003 34.7519 6.21938 34.7522 6.23857 34.7524H10.3598C10.9436 34.725 11.3946 34.2295 11.3671 33.6457C11.3661 33.6247 11.3645 33.6037 11.3623 33.5828V19.938C11.3623 19.2698 10.9725 18.6014 10.3598 18.6014H9.13457V15.8724C9.13457 8.33665 15.2436 2.22762 22.7794 2.22762C30.3151 2.22762 36.4242 8.33665 36.4242 15.8724V18.6014H35.1989C34.5863 18.6014 34.1964 19.2696 34.1964 19.938V33.5828C34.1343 34.1639 34.5549 34.6854 35.136 34.7475C35.1569 34.7498 35.1779 34.7514 35.1989 34.7523H36.4798L36.3684 34.9194C34.6972 37.1404 32.0749 38.4412 29.2954 38.428C28.6869 35.4444 25.7748 33.5189 22.7912 34.1274C20.2397 34.6478 18.4001 36.8823 18.3796 39.4862C18.41 42.5403 20.8947 45 23.9489 44.9998C25.4608 44.9753 26.9019 44.3549 27.9587 43.2733C28.6718 42.5431 29.139 41.6085 29.2954 40.6C32.7761 40.6132 36.0586 38.9822 38.1505 36.2003L39.2088 34.6408C41.6035 34.4738 43.1072 32.9701 43.1072 30.798V23.8364C43.1073 21.4418 41.3252 18.6015 38.7633 18.6015ZM9.13457 32.5247H6.23857C5.03932 32.4955 4.09079 31.4998 4.12 30.3005C4.12053 30.2808 4.12128 30.2611 4.12224 30.2412V23.2796C4.12224 21.9987 5.01331 20.8291 6.23857 20.8291H9.13457V32.5247ZM26.3437 41.7141C25.7265 42.3833 24.8593 42.7665 23.949 42.7723C22.137 42.7435 20.6666 41.2976 20.6074 39.4863C20.6066 37.6716 22.0772 36.1999 23.8919 36.1991C25.7067 36.1984 27.1784 37.6689 27.1792 39.4837C27.1792 39.4845 27.1792 39.4855 27.1792 39.4863C27.2255 40.3132 26.9224 41.1216 26.3437 41.7141ZM40.8796 30.7982C40.8796 32.3019 39.4316 32.5247 38.7633 32.5247H36.4242V20.8292H38.7633C39.9885 20.8292 40.8796 22.5557 40.8796 23.8366V30.7982Z" fill="#F1663E"/>
</svg>
