<svg width="85" height="85" viewBox="0 0 85 85" fill="none" xmlns="http://www.w3.org/2000/svg">
<path d="M57.4414 0C56.5247 0 55.7812 0.743418 55.7812 1.66016V9.29688C55.7812 10.2136 56.5247 10.957 57.4414 10.957C58.3581 10.957 59.1016 10.2136 59.1016 9.29688V1.66016C59.1016 0.743418 58.3581 0 57.4414 0Z" fill="#F1663E"/>
<path d="M19.2578 51.7969C18.3414 51.7969 17.5977 52.5406 17.5977 53.457C17.5977 54.3734 18.3414 55.1172 19.2578 55.1172C20.1742 55.1172 20.918 54.3734 20.918 53.457C20.918 52.5406 20.1742 51.7969 19.2578 51.7969Z" fill="#F1663E"/>
<path d="M80.6836 48.4766C80.6836 44.8149 77.7046 41.8359 74.043 41.8359H61.6496C63.5682 36.9214 64.3448 31.1367 64.1951 25.9874C64.1665 25.0048 64.1288 24.4365 64.0779 24.0787C63.9921 20.4916 61.0466 17.5977 57.4414 17.5977C53.7798 17.5977 50.8008 20.5766 50.8008 24.2383V25.8984C50.8008 36.3983 37.318 42.2976 27.1429 44.8274C26.3736 43.0686 24.6175 41.8359 22.5781 41.8359H5.97656C5.05982 41.8359 4.31641 42.5794 4.31641 43.4961V83.3398C4.31641 84.2566 5.05982 85 5.97656 85H22.5781C24.6038 85 26.3498 83.7836 27.1271 82.0434C27.9696 82.2596 28.7517 82.4638 29.4737 82.6524C35.2702 84.1663 38.4632 85 46.2287 85H64.082C67.7437 85 70.7227 82.021 70.7227 78.3594C70.7227 76.9941 70.3081 75.724 69.5987 74.6675C72.1633 73.7705 74.043 71.3201 74.043 68.3984C74.043 67.0381 73.6385 65.7639 72.9313 64.7026C75.4846 63.8041 77.3633 61.3594 77.3633 58.4375C77.3633 57.0722 76.9487 55.8022 76.2394 54.7456C78.804 53.8487 80.6836 51.3983 80.6836 48.4766ZM24.2383 80.0195C24.2383 80.9349 23.4935 81.6797 22.5781 81.6797H7.63672V45.1562H22.5781C23.4935 45.1562 24.2383 45.901 24.2383 46.8164V80.0195ZM74.043 51.7969C70.4821 51.7969 69.6333 51.7969 65.7422 51.7969C64.8255 51.7969 64.082 52.5403 64.082 53.457C64.082 54.3738 64.8255 55.1172 65.7422 55.1172H70.7227C72.5535 55.1172 74.043 56.6067 74.043 58.4375C74.043 60.2713 72.5565 61.7578 70.7227 61.7578H62.4219C61.5051 61.7578 60.7617 62.5012 60.7617 63.418C60.7617 64.3347 61.5051 65.0781 62.4219 65.0781H67.4023C69.2114 65.0781 70.7227 66.5233 70.7227 68.3984C70.7227 70.2322 69.2362 71.7188 67.4023 71.7188C63.8415 71.7188 62.9926 71.7188 59.1016 71.7188C58.1848 71.7188 57.4414 72.4622 57.4414 73.3789C57.4414 74.2956 58.1848 75.0391 59.1016 75.0391H64.082C65.9129 75.0391 67.4023 76.5286 67.4023 78.3594C67.4023 80.1902 65.9129 81.6797 64.082 81.6797H46.2287C38.8897 81.6797 36.0232 80.9311 30.3128 79.4398C29.4762 79.2213 28.5587 78.9818 27.5586 78.7268V48.1487C39.5728 45.2869 54.1211 38.3016 54.1211 25.8984V24.2383C54.1211 22.4075 55.6106 20.918 57.4414 20.918C59.2689 20.918 60.7582 22.4051 60.7617 24.2331V24.2383C60.7617 24.9598 61.6622 33.8146 58.0513 41.8359H52.4609C51.5442 41.8359 50.8008 42.5794 50.8008 43.4961C50.8008 44.4128 51.5442 45.1562 52.4609 45.1562C53.6202 45.1562 72.1507 45.1562 74.043 45.1562C75.8738 45.1562 77.3633 46.6457 77.3633 48.4766C77.3633 50.3104 75.8768 51.7969 74.043 51.7969Z" fill="#F1663E"/>
<path d="M19.2578 58.4375C18.3411 58.4375 17.5977 59.1809 17.5977 60.0977V73.3789C17.5977 74.2956 18.3411 75.0391 19.2578 75.0391C20.1746 75.0391 20.918 74.2956 20.918 73.3789V60.0977C20.918 59.1809 20.1746 58.4375 19.2578 58.4375Z" fill="#F1663E"/>
<path d="M44.1602 20.918H37.5195C36.6028 20.918 35.8594 21.6614 35.8594 22.5781C35.8594 23.4949 36.6028 24.2383 37.5195 24.2383H44.1602C45.0769 24.2383 45.8203 23.4949 45.8203 22.5781C45.8203 21.6614 45.0769 20.918 44.1602 20.918Z" fill="#F1663E"/>
<path d="M77.3633 20.918H70.7227C69.8059 20.918 69.0625 21.6614 69.0625 22.5781C69.0625 23.4949 69.8059 24.2383 70.7227 24.2383H77.3633C78.28 24.2383 79.0234 23.4949 79.0234 22.5781C79.0234 21.6614 78.28 20.918 77.3633 20.918Z" fill="#F1663E"/>
<path d="M72.7018 7.31764C72.0533 6.66951 71.0025 6.66951 70.3538 7.31764L65.6591 12.0124C65.0108 12.6607 65.0108 13.7119 65.6591 14.3604C66.3077 15.0086 67.3584 15.0085 68.007 14.3604L72.7018 9.6656C73.3501 9.0173 73.3501 7.96609 72.7018 7.31764Z" fill="#F1663E"/>
<path d="M49.2238 12.0124L44.529 7.31764C43.8805 6.66951 42.8297 6.66951 42.181 7.31764C41.5328 7.96593 41.5328 9.01714 42.181 9.6656L46.8758 14.3604C47.5246 15.0086 48.5753 15.0085 49.2238 14.3604C49.8721 13.7121 49.8721 12.6609 49.2238 12.0124Z" fill="#F1663E"/>
</svg>
