<svg width="85" height="85" viewBox="0 0 85 85" fill="none" xmlns="http://www.w3.org/2000/svg">
<g clip-path="url(#clip0_46_1675)">
<path d="M14.9498 65.7338C13.7598 65.7338 12.6159 66.0308 11.601 66.5885C6.25477 59.7351 3.32031 51.2217 3.32031 42.5C3.32031 20.8959 20.8959 3.32031 42.5 3.32031C45.1264 3.32031 47.7515 3.58166 50.3027 4.09721C51.2003 4.27879 52.077 3.69774 52.2586 2.79892C52.4402 1.9001 51.8591 1.02463 50.9603 0.8424C48.1932 0.283394 45.3469 0 42.5 0C31.148 0 20.475 4.42081 12.4479 12.4479C4.42081 20.475 0 31.148 0 42.5C0 52.0491 3.24249 61.3681 9.14577 68.8388C8.38573 69.9743 7.97718 71.3089 7.97718 72.7064C7.97718 74.5689 8.70285 76.3198 10.02 77.6363C11.3364 78.9534 13.0873 79.6791 14.9498 79.6791C16.8123 79.6791 18.5633 78.9534 19.8804 77.6363C21.1975 76.3198 21.9225 74.5683 21.9225 72.7058C21.9225 70.8439 21.1975 69.0923 19.8804 67.7759C18.5633 66.4588 16.8123 65.7338 14.9498 65.7338ZM17.5322 75.2887C16.8428 75.9787 15.9252 76.3588 14.9498 76.3588C13.9745 76.3588 13.0575 75.9787 12.3675 75.2887C11.6775 74.5987 11.2975 73.6818 11.2975 72.7064C11.2975 71.7304 11.6775 70.8134 12.3675 70.1234C13.0569 69.4334 13.9745 69.0541 14.9498 69.0541C15.9252 69.0541 16.8422 69.4341 17.5322 70.1234C18.2222 70.8134 18.6022 71.7304 18.6022 72.7064C18.6022 73.6818 18.2222 74.5987 17.5322 75.2887Z" fill="#F1663E"/>
<path d="M75.8532 16.1592C77.6579 13.4517 77.368 9.75005 74.9809 7.36292C73.6638 6.04647 71.9129 5.3208 70.0504 5.3208C68.1879 5.3208 66.437 6.04647 65.1199 7.36292C63.8028 8.68002 63.0777 10.431 63.0777 12.2935C63.0777 14.1559 63.8028 15.9069 65.1199 17.224C66.437 18.5411 68.1879 19.2661 70.0504 19.2661C71.2404 19.2661 72.3843 18.9691 73.3992 18.4114C78.7455 25.2654 81.6799 33.7782 81.6799 42.4999C81.6799 64.104 64.1043 81.6796 42.5002 81.6796C39.8998 81.6796 37.2993 81.4234 34.7721 80.9176C33.8733 80.7379 32.9984 81.3209 32.8181 82.2198C32.6385 83.1192 33.2215 83.9934 34.1203 84.1737C36.8615 84.7217 39.6812 84.9999 42.5002 84.9999C53.8522 84.9999 64.5252 80.5791 72.5523 72.5519C80.5794 64.5248 85.0002 53.8518 85.0002 42.4999C85.0002 32.9501 81.7571 23.6305 75.8532 16.1592ZM67.4681 14.8764C66.7781 14.1864 66.398 13.2694 66.398 12.2935C66.398 11.3181 66.7781 10.4011 67.4681 9.71114C68.1574 9.02113 69.0751 8.64111 70.0504 8.64111C71.0257 8.64111 71.9434 9.02113 72.6334 9.71114C74.0568 11.1352 74.0568 13.4523 72.6334 14.8764C71.9434 15.5658 71.0257 15.9458 70.0504 15.9458C69.0744 15.9458 68.1574 15.5658 67.4681 14.8764Z" fill="#F1663E"/>
<path d="M35.6494 71.0547C35.6494 71.9717 36.3932 72.7148 37.3096 72.7148H47.6901C48.6071 72.7148 49.3502 71.9717 49.3502 71.0547V67.8362C51.5331 67.2486 53.62 66.3836 55.581 65.2539L57.8534 67.5262C58.1646 67.8375 58.5868 68.0126 59.0278 68.0126C59.4675 68.0126 59.8903 67.8375 60.2016 67.5256L67.5387 60.1833C68.1865 59.5348 68.1865 58.4835 67.5387 57.8357L65.2689 55.5659C66.3986 53.6049 67.2637 51.518 67.8513 49.3352H71.0574C71.9744 49.3352 72.7176 48.592 72.7176 47.675V37.2945C72.7176 36.3775 71.9744 35.6343 71.0574 35.6343H67.8506C67.2631 33.4521 66.3986 31.3653 65.2689 29.4042L67.5264 27.1468C67.8376 26.8355 68.0127 26.4127 68.0127 25.9724C68.0121 25.532 67.837 25.1092 67.5257 24.7979L60.1828 17.4608C59.5349 16.813 58.4837 16.813 57.8352 17.4615L55.581 19.7163C53.62 18.5866 51.5331 17.7215 49.3502 17.134V13.9453C49.3502 13.0283 48.6071 12.2852 47.6901 12.2852H37.3096C36.3932 12.2852 35.6494 13.0283 35.6494 13.9453V17.1346C33.4672 17.7215 31.3804 18.5866 29.4193 19.7163L27.1645 17.4615C26.5166 16.8136 25.4654 16.813 24.8169 17.4608L17.4746 24.7986C17.1627 25.1099 16.9876 25.532 16.9876 25.9724C16.9876 26.4127 17.1627 26.8355 17.4739 27.1468L19.7314 29.4042C18.6017 31.3653 17.7366 33.4515 17.149 35.6343H13.9487C13.0317 35.6343 12.2886 36.3775 12.2886 37.2939L12.2827 47.6744C12.2821 48.1147 12.4572 48.5375 12.7684 48.8488C13.0797 49.1601 13.5019 49.3352 13.9429 49.3352H17.149C17.7366 51.518 18.6017 53.6049 19.7314 55.5659L17.4616 57.8357C16.8138 58.4835 16.8131 59.5348 17.4616 60.1833L24.7987 67.5256C25.11 67.8368 25.5322 68.0126 25.9725 68.0126H25.9732C26.4135 68.0126 26.8357 67.8375 27.147 67.5262L29.4186 65.2539C31.3804 66.3836 33.4672 67.2486 35.6494 67.8362V71.0547ZM30.0697 61.7624C29.4128 61.3376 28.5484 61.4297 27.9945 61.9828L25.9732 64.0042L20.983 59.0101L23.0024 56.9901C23.5556 56.4369 23.6477 55.5724 23.2229 54.9155C21.7177 52.5861 20.6594 50.033 20.0783 47.3261C19.9136 46.5615 19.2379 46.0149 18.4551 46.0149H15.6037L15.6076 38.9547H18.4551C19.2379 38.9547 19.9136 38.4086 20.0783 37.6434C20.6594 34.9372 21.7177 32.3841 23.2229 30.0547C23.6477 29.3977 23.5556 28.5333 23.0024 27.9801L20.9959 25.973L25.99 20.9828L27.9945 22.988C28.5484 23.5411 29.4122 23.6326 30.0697 23.2085C32.3985 21.7033 34.9516 20.645 37.6585 20.0639C38.423 19.8992 38.9697 19.2228 38.9697 18.4407V15.6055H46.0299V18.4401C46.0299 19.2228 46.576 19.8992 47.3412 20.0632C50.0474 20.645 52.6012 21.7027 54.9299 23.2078C55.5869 23.6326 56.4513 23.5411 57.0045 22.9873L59.0096 20.9828L64.0037 25.973L61.9973 27.9795C61.4434 28.5333 61.352 29.3977 61.7768 30.0547C63.2819 32.3841 64.3396 34.9372 64.9213 37.6434C65.0854 38.4086 65.7618 38.9547 66.5445 38.9547H69.3973V46.0149H66.5445C65.7618 46.0149 65.0861 46.5615 64.9213 47.3261C64.3403 50.0323 63.2819 52.5861 61.7768 54.9149C61.352 55.5724 61.4441 56.4369 61.9973 56.9901L64.0167 59.0095L59.0265 64.0036L57.0051 61.9828C56.4513 61.429 55.5869 61.3376 54.9299 61.7624C52.6005 63.2675 50.0474 64.3252 47.3412 64.9069C46.576 65.0716 46.0299 65.7474 46.0299 66.5301V69.3945H38.9697V66.5301C38.9697 65.748 38.423 65.0716 37.6585 64.9069C34.9523 64.3259 32.3991 63.2675 30.0697 61.7624Z" fill="#F1663E"/>
<path d="M56.2176 42.4999C56.2176 34.9358 50.064 28.7822 42.4999 28.7822C34.9358 28.7822 28.7822 34.9358 28.7822 42.4999C28.7822 50.064 34.9358 56.2176 42.4999 56.2176C50.064 56.2176 56.2176 50.064 56.2176 42.4999ZM32.1025 42.4999C32.1025 36.7665 36.7665 32.1025 42.4999 32.1025C48.2333 32.1025 52.8973 36.7672 52.8973 42.4999C52.8973 48.2326 48.2333 52.8973 42.4999 52.8973C36.7665 52.8973 32.1025 48.2333 32.1025 42.4999Z" fill="#F1663E"/>
<path d="M57.7866 6.2788C58.2237 6.2788 58.6517 6.10111 58.9604 5.79243C59.2691 5.4818 59.4468 5.05379 59.4468 4.6167C59.4468 4.18221 59.2697 3.75355 58.9604 3.44292C58.6517 3.13423 58.2237 2.95654 57.7866 2.95654C57.3482 2.95654 56.9222 3.13423 56.6135 3.44292C56.3042 3.75355 56.1265 4.18026 56.1265 4.6167C56.1265 5.05508 56.3042 5.4818 56.6135 5.79243C56.9222 6.10111 57.3482 6.2788 57.7866 6.2788Z" fill="#F1663E"/>
<path d="M27.2861 78.751C26.8497 78.751 26.421 78.9287 26.1124 79.2374C25.8037 79.546 25.626 79.9747 25.626 80.4111C25.626 80.8495 25.8037 81.2762 26.1124 81.5849C26.421 81.8936 26.8497 82.0713 27.2861 82.0713C27.7226 82.0713 28.1512 81.8936 28.4599 81.5849C28.7686 81.2762 28.9463 80.8476 28.9463 80.4111C28.9463 79.9747 28.7686 79.546 28.4599 79.2374C28.1512 78.9287 27.7226 78.751 27.2861 78.751Z" fill="#F1663E"/>
</g>
<defs>
<clipPath id="clip0_46_1675">
<rect width="85" height="85" fill="white"/>
</clipPath>
</defs>
</svg>
