<svg width="85" height="85" viewBox="0 0 85 85" fill="none" xmlns="http://www.w3.org/2000/svg">
<g clip-path="url(#clip0_46_1686)">
<path d="M84.6538 36.2513L70.427 17.7704C69.9005 17.0869 68.94 16.9182 68.2118 17.3813L59.0264 23.2229H47.0467C46.8917 23.2229 46.7374 23.256 46.5882 23.2995L37.2998 25.9732L27.6618 23.3371L18.2968 17.3813C17.5809 16.926 16.638 17.0804 16.1056 17.7405L0.36974 37.2318C-0.195751 37.9322 -0.102367 38.9549 0.579854 39.5418L8.82746 46.6396L16.2268 56.6109C14.0628 58.9163 14.1049 62.5524 16.3565 64.8047C17.3546 65.8021 18.6237 66.3656 19.9291 66.4966C19.8837 66.7923 19.8604 67.0926 19.8604 67.3974C19.8604 68.9706 20.4732 70.4499 21.5854 71.562C22.6982 72.6749 24.1774 73.2877 25.7507 73.2877C25.7721 73.2877 25.7928 73.2864 25.8136 73.2857C25.8129 73.3259 25.811 73.3655 25.811 73.4057C25.811 74.979 26.4238 76.4582 27.536 77.571C28.6488 78.6832 30.128 79.296 31.7013 79.296C32.0119 79.296 32.3193 79.2707 32.6209 79.224C32.7486 80.534 33.3135 81.809 34.3148 82.8102C35.4626 83.9587 36.971 84.5327 38.4794 84.5327C39.9878 84.5327 41.4962 83.9587 42.6447 82.8102L43.5455 81.9095L43.9236 82.2143C45.0623 83.3174 46.5409 83.8686 48.0195 83.8686C49.5279 83.8686 51.0363 83.2947 52.1841 82.1462C53.356 80.9743 53.9299 79.4277 53.9059 77.8888C55.4441 77.9121 56.9915 77.3389 58.1633 76.1677C59.3338 74.9965 59.9078 73.4511 59.8851 71.9129C61.4875 71.9382 63.0076 71.3227 64.1418 70.1885C65.3136 69.0167 65.8876 67.47 65.8636 65.9311C67.4031 65.9545 68.9491 65.3812 70.121 64.2094C72.1209 62.2094 72.3784 59.118 70.8953 56.8359L76.2979 45.5209L84.4204 38.5314C85.0916 37.9536 85.194 36.9523 84.6538 36.2513ZM17.7638 20.9928L24.4978 25.2748L9.84885 43.1215L3.97864 38.069L17.7638 20.9928ZM18.7138 58.8314L20.7462 56.799C20.8078 56.7374 20.8727 56.679 20.9388 56.6245C21.3363 56.3003 21.8175 56.107 22.3273 56.061C22.3415 56.0597 22.3564 56.0597 22.3707 56.059C22.4433 56.0532 22.516 56.0493 22.5893 56.0499C23.2857 56.0597 23.9329 56.3444 24.4128 56.8508C25.3544 57.8463 25.3039 59.4727 24.3 60.4766L22.3292 62.4474C21.3325 63.4441 19.7106 63.4441 18.7138 62.4474C17.7171 61.45 17.7171 59.8281 18.7138 58.8314ZM23.9427 69.2047C23.4595 68.7223 23.1937 68.0802 23.1937 67.3974C23.1937 66.7145 23.4595 66.0725 23.9427 65.5894L27.8836 61.6484C28.6384 60.8936 29.8252 60.6867 30.7902 61.1465C31.785 61.6205 32.3446 62.7003 32.1987 63.7865C32.1209 64.3663 31.8511 64.9123 31.4374 65.3267L27.5587 69.2047C27.0756 69.6879 26.4335 69.9538 25.7507 69.9538C25.0678 69.9538 24.4258 69.6879 23.9427 69.2047ZM29.8933 75.2131C29.4102 74.7306 29.1443 74.0886 29.1443 73.4057C29.1443 72.7228 29.4102 72.0808 29.8933 71.5977L33.8336 67.6568C34.6409 66.85 35.936 66.6762 36.9243 67.2515C37.827 67.7767 38.2998 68.8079 38.1448 69.8351C38.0598 70.3999 37.7914 70.931 37.3873 71.3351L33.5093 75.2131C33.0262 75.6962 32.3842 75.9621 31.7013 75.9621C31.0184 75.9621 30.3764 75.6962 29.8933 75.2131ZM36.6714 80.4529C35.6747 79.4562 35.6747 77.8343 36.6714 76.8376L38.7038 74.8052C38.7654 74.7436 38.8296 74.6858 38.8957 74.6314C38.8977 74.6301 38.899 74.6288 38.9003 74.6275C39.231 74.359 39.6195 74.1794 40.0339 74.1009C40.0436 74.0996 40.0533 74.0983 40.063 74.097C40.1344 74.084 40.207 74.0737 40.2796 74.0672C40.3088 74.0646 40.338 74.0646 40.3678 74.0626C40.4275 74.0594 40.4865 74.0555 40.5468 74.0562C41.2427 74.0659 41.8905 74.3499 42.3704 74.8571C42.4294 74.9193 42.4845 74.9842 42.5351 75.051C43.3016 76.0529 43.1985 77.5412 42.2472 78.4932L40.2868 80.4536C39.29 81.4503 37.6681 81.4497 36.6714 80.4529ZM67.7637 61.8521C66.7669 62.8495 65.145 62.8488 64.1483 61.8521C64.112 61.8157 64.0737 61.782 64.0348 61.7502L53.3177 50.9203C52.6699 50.266 51.6148 50.2608 50.9604 50.9086C50.3061 51.5558 50.3009 52.611 50.9481 53.2653L61.7813 64.2113C61.7826 64.2126 61.7839 64.2139 61.7852 64.2152C62.7819 65.2119 62.7819 66.8345 61.7852 67.8312C61.302 68.3144 60.66 68.5802 59.9771 68.5802C59.2936 68.5802 58.6516 68.3144 58.1691 67.8312L50.9222 60.509C50.275 59.8547 49.2198 59.8495 48.5655 60.4967C47.9112 61.1446 47.906 62.1997 48.5532 62.854L55.6893 70.064C55.7256 70.1094 55.7645 70.1528 55.806 70.1943C56.8027 71.1911 56.8027 72.8136 55.806 73.8104C54.8086 74.8071 53.1861 74.8065 52.1893 73.8097L48.2341 69.813C47.5863 69.1587 46.5312 69.1529 45.8768 69.8007C45.2225 70.4479 45.2173 71.503 45.8645 72.1574L49.7095 76.0419C49.7458 76.0873 49.7847 76.1314 49.8268 76.1729C50.8236 77.1696 50.8236 78.7921 49.8268 79.7889C48.8301 80.7863 47.2082 80.7856 46.2115 79.7889C46.0967 79.6741 45.9618 79.5859 45.8334 79.4873C45.7244 79.4043 45.6959 79.3466 45.7504 79.2143C45.8055 79.0801 45.8879 78.9588 45.943 78.8239C46.0039 78.6735 46.0532 78.5185 46.1012 78.3628C46.3567 77.5392 46.4319 76.6534 46.3172 75.7987C46.0967 74.1586 45.1946 72.6787 43.8276 71.7423C43.0889 71.2371 42.2342 70.9058 41.3484 70.7812C41.7777 68.8876 41.2621 66.8345 39.921 65.4175C38.8173 64.2515 37.3264 63.5972 35.7226 63.5751C35.6643 63.5745 35.6059 63.5745 35.5469 63.5751C35.5826 62.0447 35.0262 60.5239 33.9711 59.4092C32.8667 58.2432 31.3758 57.5888 29.7727 57.5668C29.296 57.5603 28.8148 57.6109 28.3505 57.7179C28.1521 56.3372 27.4562 55.0597 26.4024 54.146C25.3551 53.2393 24.038 52.7361 22.6353 52.7167C21.1587 52.6953 19.708 53.24 18.6114 54.2303L12.1685 45.5488L27.582 26.7709L32.4944 28.1146L26.0788 39.4354C25.3032 40.8044 25.1074 42.3932 25.5269 43.9094C25.9465 45.4262 26.9309 46.6882 28.2999 47.4638C28.3855 47.5125 28.4718 47.5585 28.5593 47.6026C28.5658 47.6058 28.5723 47.6091 28.5794 47.6123C28.8096 47.7271 29.0464 47.8257 29.2863 47.9087C30.4037 48.2958 31.6105 48.338 32.7746 48.0163C34.2908 47.5968 35.5527 46.6117 36.3283 45.2434L40.4975 37.8861L47.9417 38.414L67.7643 58.236C68.7604 59.2334 68.7604 60.8553 67.7637 61.8521ZM68.4543 54.2121L49.8586 35.6171C49.8236 35.5814 49.7866 35.5477 49.7484 35.5159C49.4805 35.2928 49.1485 35.1579 48.7983 35.1333L39.6837 34.4867C39.0533 34.4433 38.4269 34.7785 38.1156 35.3278L33.4283 43.6001C33.0917 44.1941 32.5437 44.6215 31.8855 44.8037C31.2279 44.9859 30.5379 44.9003 29.9432 44.5637C29.3492 44.2272 28.9218 43.6792 28.7396 43.021C28.5574 42.3627 28.6423 41.6727 28.9796 41.0787L35.2369 30.0354L37.7725 29.3059C37.7894 29.3007 37.8056 29.2942 37.8225 29.289L47.286 26.5562H58.7204L72.9951 44.7025L68.4543 54.2121ZM75.1786 42.0865L61.9778 25.2962L68.715 21.0116L81.0501 37.034L75.1786 42.0865Z" fill="#F1663E"/>
<path d="M51.4953 20.093C51.922 20.093 52.3487 19.9302 52.6742 19.6047L64.0593 8.21964C64.7104 7.56854 64.7104 6.51344 64.0593 5.86234C63.4082 5.21125 62.3531 5.21125 61.702 5.86234L50.3169 17.2474C49.6658 17.8985 49.6658 18.9536 50.3169 19.6047C50.6425 19.9302 51.0692 20.093 51.4953 20.093Z" fill="#F1663E"/>
<path d="M32.3255 19.6047C32.6511 19.9302 33.0778 20.093 33.5045 20.093C33.9305 20.093 34.3573 19.9302 34.6828 19.6047C35.3339 18.9536 35.3339 17.8985 34.6828 17.2474L23.2978 5.86234C22.6467 5.21125 21.5916 5.21125 20.9405 5.86234C20.2894 6.51344 20.2894 7.56854 20.9405 8.21964L32.3255 19.6047Z" fill="#F1663E"/>
<path d="M42.5001 20.0932C43.4204 20.0932 44.1668 19.3468 44.1668 18.4266V9.00453C44.1668 8.08431 43.4204 7.33789 42.5001 7.33789C41.5799 7.33789 40.8335 8.08431 40.8335 9.00453V18.4266C40.8335 19.3468 41.5799 20.0932 42.5001 20.0932Z" fill="#F1663E"/>
<path d="M40.9616 2.96362C41.2262 3.60499 41.8857 4.02586 42.5815 3.98955C43.2689 3.95388 43.8727 3.48956 44.0854 2.83522C44.2988 2.1757 44.0666 1.42409 43.5141 1.00386C42.9505 0.574555 42.1646 0.550561 41.5751 0.940308C40.9175 1.3748 40.6626 2.2399 40.9616 2.96362Z" fill="#F1663E"/>
</g>
<defs>
<clipPath id="clip0_46_1686">
<rect width="85" height="85" fill="white"/>
</clipPath>
</defs>
</svg>
