<svg width="85" height="85" viewBox="0 0 85 85" fill="none" xmlns="http://www.w3.org/2000/svg">
<g clip-path="url(#clip0_46_1696)">
<path d="M58.6439 36.5012C55.7773 32.7668 53.0521 29.2141 51.4406 25.1367C53.343 24.2963 54.6744 22.3928 54.6744 20.183C54.6744 17.9047 53.2591 15.9521 51.2623 15.1544C51.5821 14.5235 52.1176 13.9102 52.8449 13.1089C54.4523 11.3377 56.4526 9.13331 56.6555 4.8257C56.6839 4.22373 56.3837 3.65363 55.8712 3.33621C54.1561 2.27387 52.7327 2.54631 51.4766 2.78636C50.6735 2.9401 49.9148 3.08503 48.8891 2.95836C47.8641 2.83152 47.3749 2.43723 46.6343 1.84041C45.7581 1.13434 44.6677 0.255457 42.7037 0.0125757C42.5684 -0.0041919 42.4314 -0.0041919 42.2961 0.0125757C40.3322 0.255457 39.2418 1.13434 38.3655 1.84041C37.625 2.43723 37.1357 2.83152 36.1107 2.95836C35.0854 3.08552 34.3266 2.9401 33.5234 2.78636C32.2675 2.54614 30.844 2.27387 29.1288 3.33621C28.6164 3.65363 28.3161 4.22373 28.3445 4.8257C28.5474 9.13331 30.5477 11.3377 32.1551 13.1089C32.8822 13.9102 33.4179 14.5235 33.7377 15.1544C31.7407 15.9521 30.3256 17.9047 30.3256 20.183C30.3256 22.354 31.6105 24.2293 33.4595 25.0916C32.0462 28.6792 29.7737 31.8678 27.703 34.6257C27.1525 35.359 27.3006 36.3995 28.0337 36.9501C28.3326 37.1745 28.6824 37.2827 29.0293 37.2827C29.5338 37.2827 30.0321 37.0538 30.3581 36.6194C32.6963 33.5052 35.2773 29.862 36.8148 25.5967H48.0657C49.818 30.4545 52.9615 34.5516 56.0099 38.5231C60.7946 44.7561 65.7422 51.2015 65.7422 60.982C65.7422 79.6629 49.4883 81.6798 42.5 81.6798C35.5117 81.6798 19.2578 79.6631 19.2578 60.982C19.2578 56.6764 20.2034 52.6633 22.1488 48.7131C22.5539 47.8905 22.2154 46.8954 21.3929 46.4903C20.5707 46.0854 19.5752 46.4236 19.1702 47.2462C16.9949 51.6632 15.9375 56.1561 15.9375 60.982C15.9375 65.3347 16.7521 69.2034 18.3588 72.4804C19.8281 75.4771 21.964 77.9983 24.7074 79.974C30.4757 84.128 37.5668 85.0001 42.5 85.0001C47.4332 85.0001 54.5243 84.1282 60.2926 79.974C63.036 77.9983 65.1719 75.4771 66.6412 72.4804C68.2479 69.2034 69.0625 65.3347 69.0625 60.982C69.0625 50.0741 63.7659 43.174 58.6439 36.5012ZM31.7912 5.88787C32.0692 5.89318 32.4084 5.95378 32.8993 6.04758C33.8239 6.22438 34.974 6.44485 36.5183 6.2536C38.4824 6.01072 39.5728 5.13183 40.449 4.42577C41.1388 3.86995 41.6105 3.48977 42.5 3.3377C43.3895 3.48977 43.8612 3.86995 44.551 4.42577C45.4272 5.13183 46.5176 6.01072 48.4817 6.2536C50.026 6.44485 51.1763 6.22438 52.1007 6.04758C52.5916 5.95361 52.9308 5.89302 53.2088 5.88787C52.8091 8.20794 51.6272 9.51 50.3861 10.8776C49.4109 11.9523 48.3383 13.1388 47.8577 14.7694H37.1423C36.6617 13.1388 35.5891 11.9523 34.6139 10.8778C33.3728 9.51 32.1909 8.20777 31.7912 5.88787ZM35.7392 18.0895H49.2608C50.4151 18.0895 51.3541 19.0287 51.3541 20.1828C51.3541 21.3348 50.4186 22.2721 49.2676 22.2758C49.265 22.2758 49.2625 22.2761 49.2598 22.2761H35.739C34.5847 22.2761 33.6457 21.337 33.6457 20.1828C33.6457 19.0287 34.5849 18.0895 35.7392 18.0895Z" fill="#F1663E"/>
<path d="M35.8594 45.3374C33.1131 45.3374 30.8789 47.5716 30.8789 50.3179C30.8789 53.0641 33.1131 55.2983 35.8594 55.2983C38.6056 55.2983 40.8398 53.0641 40.8398 50.3179C40.8398 47.5716 38.6056 45.3374 35.8594 45.3374ZM35.8594 51.978C34.944 51.978 34.1992 51.2333 34.1992 50.3179C34.1992 49.4025 34.944 48.6577 35.8594 48.6577C36.7748 48.6577 37.5195 49.4025 37.5195 50.3179C37.5195 51.2333 36.7748 51.978 35.8594 51.978Z" fill="#F1663E"/>
<path d="M44.1602 63.5991C44.1602 66.3454 46.3944 68.5796 49.1406 68.5796C51.8869 68.5796 54.1211 66.3454 54.1211 63.5991C54.1211 60.8529 51.8869 58.6187 49.1406 58.6187C46.3944 58.6187 44.1602 60.8529 44.1602 63.5991ZM50.8008 63.5991C50.8008 64.5145 50.056 65.2593 49.1406 65.2593C48.2252 65.2593 47.4805 64.5145 47.4805 63.5991C47.4805 62.6837 48.2252 61.939 49.1406 61.939C50.056 61.939 50.8008 62.6837 50.8008 63.5991Z" fill="#F1663E"/>
<path d="M49.0808 45.5602C48.2871 45.1016 47.2716 45.3737 46.813 46.1678L35.3111 66.0896C34.8526 66.8837 35.1247 67.8991 35.9187 68.3574C36.1802 68.5085 36.4656 68.5802 36.7473 68.5802C37.3211 68.5802 37.8791 68.2824 38.1865 67.7498L49.6884 47.8279C50.147 47.0339 49.8749 46.0185 49.0808 45.5602Z" fill="#F1663E"/>
<path d="M24.5523 43.2622C25.4692 43.2622 26.2124 42.519 26.2124 41.6021C26.2124 40.6851 25.4692 39.9419 24.5523 39.9419H24.5511C23.6342 39.9419 22.8916 40.6851 22.8916 41.6021C22.8916 42.519 23.6355 43.2622 24.5523 43.2622Z" fill="#F1663E"/>
</g>
<defs>
<clipPath id="clip0_46_1696">
<rect width="85" height="85" fill="white"/>
</clipPath>
</defs>
</svg>
