<svg width="59" height="59" viewBox="0 0 59 59" fill="none" xmlns="http://www.w3.org/2000/svg">
<g clip-path="url(#clip0_111_7542)">
<path d="M41.7634 59.1153H17.2313C13.3831 59.1153 9.86643 57.1679 7.82401 53.9064C5.7816 50.645 5.56565 46.6313 7.24565 43.1694L22.6959 14.5107C22.9148 14.1043 23.3392 13.8512 23.8008 13.8512H32.9074C33.3414 13.8512 33.7453 14.0756 33.9739 14.4445L51.4657 42.6282C51.4779 42.6478 51.4895 42.6674 51.5006 42.6877C53.4014 46.1613 53.3309 50.2686 51.3119 53.6748C49.2928 57.0815 45.7237 59.1153 41.7634 59.1153ZM24.5503 16.3618L9.47993 44.3132C8.20406 46.9446 8.37138 50.0503 9.95193 52.5739C11.5324 55.098 14.2536 56.6046 17.2313 56.6046H41.7633C44.8274 56.6046 47.59 55.0305 49.1524 52.3949C50.7086 49.7684 50.7688 46.6038 49.3136 43.9221L32.2093 16.3618H24.5503Z" fill="#F1663E"/>
<path d="M32.907 16.3618H23.8003C23.3036 16.3618 22.8537 16.0687 22.6526 15.6146C20.414 10.5578 18.4929 6.58402 16.7784 3.46658C16.5948 3.13252 16.5727 2.73346 16.7186 2.3813C16.8641 2.02915 17.162 1.7625 17.528 1.65613C19.1612 1.18137 20.8416 0.811236 22.5226 0.555877C23.2091 0.453548 23.8481 0.922783 23.9523 1.60797C24.0565 2.2935 23.5854 2.93374 22.9002 3.03768C21.8408 3.19889 20.7815 3.4085 19.7362 3.66409C21.1996 6.43767 22.8068 9.79272 24.6162 13.851H32.0911C33.9018 9.7903 35.5089 6.43525 36.9714 3.66409C35.9282 3.40908 34.8708 3.19981 33.8135 3.0386C33.1282 2.93443 32.6569 2.29419 32.7611 1.60889C32.8659 0.923013 33.5144 0.454355 34.1911 0.556798C35.8706 0.812388 37.5488 1.18229 39.1793 1.65613C39.5453 1.7625 39.8431 2.02915 39.989 2.3813C40.1349 2.73346 40.1128 3.13252 39.9296 3.46658C38.217 6.58033 36.2954 10.5541 34.055 15.6146C33.8541 16.0687 33.4035 16.3618 32.907 16.3618Z" fill="#F1663E"/>
<path d="M48.4602 26.7608C47.7669 26.7608 47.2048 26.1987 47.2048 25.5054C47.2048 20.4636 43.1029 16.3618 38.0608 16.3618H23.8013C23.108 16.3618 22.5459 15.7997 22.5459 15.1064C22.5459 14.4132 23.108 13.8511 23.8013 13.8511H38.0609C44.4871 13.8511 49.7155 19.0793 49.7155 25.5054C49.7155 26.1987 49.1534 26.7608 48.4602 26.7608Z" fill="#F1663E"/>
<path d="M32.7705 59.054H26.1442C25.4509 59.054 24.8888 58.4919 24.8888 57.7986V42.1947H20.1664C19.6942 42.1947 19.262 41.9299 19.0478 41.5089C18.8336 41.0884 18.8735 40.5827 19.1514 40.2008L28.516 27.3313C28.7526 27.0062 29.1219 26.8021 29.5332 26.8146C29.9353 26.8152 30.3132 27.0087 30.5485 27.3347L39.8469 40.2045C40.1228 40.5864 40.162 41.0908 39.9474 41.5107C39.7323 41.9306 39.3007 42.1947 38.8294 42.1947H34.0257V57.7986C34.0259 58.4919 33.4637 59.054 32.7705 59.054ZM27.3995 56.5434H31.5151V40.9395C31.5151 40.2462 32.0772 39.6841 32.7705 39.6841H36.374L29.5273 30.2085L22.6323 39.6841H26.1442C26.8374 39.6841 27.3995 40.2462 27.3995 40.9395V56.5434Z" fill="#F1663E"/>
<path d="M28.354 2.62596C29.0473 2.62596 29.6094 2.06392 29.6094 1.3706C29.6094 0.67728 29.0473 0.115234 28.354 0.115234C27.6607 0.115234 27.0986 0.67728 27.0986 1.3706C27.0986 2.06392 27.6607 2.62596 28.354 2.62596Z" fill="#F1663E"/>
</g>
<defs>
<clipPath id="clip0_111_7542">
<rect width="59" height="59" fill="white"/>
</clipPath>
</defs>
</svg>
