<svg width="59" height="59" viewBox="0 0 59 59" fill="none" xmlns="http://www.w3.org/2000/svg">
<g clip-path="url(#clip0_111_7529)">
<path d="M52.7234 57.3328H6.27659C2.81564 57.3328 0 54.517 0 51.0562V15.2797C0 14.5864 0.562113 14.0243 1.25536 14.0243H57.7448C58.438 14.0243 59.0001 14.5864 59.0001 15.2797V51.0562C59 54.517 56.1841 57.3328 52.7234 57.3328ZM2.51061 16.5349V51.0561C2.51061 53.1328 4.19995 54.8221 6.27659 54.8221H52.7234C54.8001 54.8221 56.4894 53.1328 56.4894 51.0561V16.5349H2.51061Z" fill="#F1663E"/>
<path d="M57.7446 16.5349H1.25536C0.562113 16.5349 0 15.9729 0 15.2796V7.94382C0 4.48276 2.81564 1.66724 6.27659 1.66724H52.7234C56.1841 1.66724 59 4.48287 59 7.94382V15.2796C59 15.9729 58.4379 16.5349 57.7446 16.5349ZM2.51061 14.0243H56.4894V7.94382C56.4894 5.86718 54.8001 4.17785 52.7234 4.17785H6.27659C4.19995 4.17785 2.51061 5.86718 2.51061 7.94382V14.0243Z" fill="#F1663E"/>
<path d="M40.4842 10.6703C41.3508 10.6703 42.0533 9.96774 42.0533 9.10113C42.0533 8.23451 41.3508 7.53198 40.4842 7.53198C39.6176 7.53198 38.915 8.23451 38.915 9.10113C38.915 9.96774 39.6176 10.6703 40.4842 10.6703Z" fill="#F1663E"/>
<path d="M45.1912 10.6703C46.0578 10.6703 46.7604 9.96774 46.7604 9.10113C46.7604 8.23451 46.0578 7.53198 45.1912 7.53198C44.3246 7.53198 43.6221 8.23451 43.6221 9.10113C43.6221 9.96774 44.3246 10.6703 45.1912 10.6703Z" fill="#F1663E"/>
<path d="M49.8992 10.6703C50.7658 10.6703 51.4684 9.96774 51.4684 9.10113C51.4684 8.23451 50.7658 7.53198 49.8992 7.53198C49.0326 7.53198 48.3301 8.23451 48.3301 9.10113C48.3301 9.96774 49.0326 10.6703 49.8992 10.6703Z" fill="#F1663E"/>
<path d="M29.4998 10.3564H7.53173C6.83848 10.3564 6.27637 9.79432 6.27637 9.10107C6.27637 8.40782 6.83848 7.8457 7.53173 7.8457H29.4998C30.193 7.8457 30.7551 8.40782 30.7551 9.10107C30.7551 9.79443 30.193 10.3564 29.4998 10.3564Z" fill="#F1663E"/>
<path d="M20.0847 48.3298H13.8081C13.1148 48.3298 12.5527 47.7677 12.5527 47.0744V35.7765C12.5527 35.0832 13.1148 34.5211 13.8081 34.5211H20.0847C20.7779 34.5211 21.34 35.0832 21.34 35.7765V47.0744C21.3399 47.7678 20.7779 48.3298 20.0847 48.3298ZM15.0633 45.8192H18.8293V37.032H15.0633V45.8192Z" fill="#F1663E"/>
<path d="M32.6384 48.3298H26.3618C25.6686 48.3298 25.1064 47.7676 25.1064 47.0744V29.5C25.1064 28.8067 25.6686 28.2446 26.3618 28.2446H32.6384C33.3316 28.2446 33.8938 28.8067 33.8938 29.5V47.0745C33.8938 47.7678 33.3316 48.3298 32.6384 48.3298ZM27.6172 45.8191H31.3831V30.7554H27.6172V45.8191Z" fill="#F1663E"/>
<path d="M45.1911 48.3297H38.9145C38.2213 48.3297 37.6592 47.7676 37.6592 47.0744V23.2234C37.6592 22.5301 38.2213 21.968 38.9145 21.968H45.1911C45.8844 21.968 46.4465 22.5301 46.4465 23.2234V47.0745C46.4465 47.7677 45.8844 48.3297 45.1911 48.3297ZM40.1699 45.8191H43.9359V24.4787H40.1699V45.8191Z" fill="#F1663E"/>
</g>
<defs>
<clipPath id="clip0_111_7529">
<rect width="59" height="59" fill="white"/>
</clipPath>
</defs>
</svg>
