<svg width="82" height="82" viewBox="0 0 82 82" fill="none" xmlns="http://www.w3.org/2000/svg">
<g clip-path="url(#clip0_65_4635)">
<path d="M42.271 71.8135C43.1974 72.0492 44.0148 72.5213 44.6497 73.1575C45.5939 74.1024 46.175 75.3907 46.175 76.8257C46.175 78.2421 45.5939 79.5496 44.6497 80.4754C43.7246 81.419 42.435 82 41 82C39.5657 82 38.2767 81.419 37.3324 80.4747C36.4061 79.549 35.8257 78.2415 35.8257 76.8251C35.8257 75.3907 36.4061 74.1018 37.3324 73.1568C37.9865 72.5213 38.8033 72.0492 39.7111 71.8128V60.3194C39.7111 59.6115 40.2921 59.0298 41 59.0298C41.7085 59.0298 42.271 59.6108 42.271 60.3194V71.8135ZM42.8527 74.973C42.3812 74.5009 41.7271 74.2107 41 74.2107C40.2742 74.2107 39.6201 74.5009 39.1486 74.973C38.6765 75.4452 38.3856 76.098 38.3856 76.8251C38.3856 77.5515 38.6765 78.187 39.1486 78.6585C39.6201 79.1307 40.2742 79.4395 41 79.4395C41.7271 79.4395 42.3806 79.1313 42.8527 78.6585C43.3248 78.187 43.615 77.5509 43.615 76.8251C43.615 76.098 43.3248 75.4458 42.8527 74.973Z" fill="#F1663E"/>
<path d="M34.4092 47.4459H40.7462C41.4541 47.4459 42.0358 48.009 42.0358 48.7169V60.3192C42.0358 61.0271 41.4548 61.5902 40.7462 61.5902H34.4092C33.7007 61.5902 33.1382 61.0271 33.1382 60.3192V48.7169C33.1382 48.0083 33.7007 47.4459 34.4092 47.4459ZM59.3218 31.5398H65.6403C66.3482 31.5398 66.9299 32.1023 66.9299 32.8102V60.3186C66.9299 61.0265 66.3488 61.5896 65.6403 61.5896H59.3218C58.6133 61.5896 58.0322 61.0265 58.0322 60.3186V32.8102C58.0322 32.1023 58.6126 31.5398 59.3218 31.5398ZM64.3693 34.0997H60.5922V59.0297H64.3693V34.0997ZM46.8649 40.5278H53.2019C53.9104 40.5278 54.4729 41.0909 54.4729 41.7988V60.3192C54.4729 61.0271 53.9104 61.5902 53.2019 61.5902H46.8649C46.157 61.5902 45.5753 61.0271 45.5753 60.3192V41.7988C45.5759 41.0909 46.157 40.5278 46.8649 40.5278ZM51.913 43.0883H48.1544V59.0303H51.913V43.0883ZM39.4752 50.0064H35.6981V59.0303H39.4752V50.0064Z" fill="#F1663E"/>
<path d="M27.1278 15.5608C30.5776 15.5608 33.7007 16.9593 35.971 19.2104C38.2228 21.4802 39.6207 24.6032 39.6207 28.0536C39.6207 31.5034 38.2228 34.6271 35.971 36.8962C33.7013 39.1486 30.5782 40.5458 27.1278 40.5458C23.6774 40.5458 20.5544 39.148 18.2847 36.8962C16.0329 34.6271 14.635 31.5034 14.635 28.0536C14.635 24.6032 16.0335 21.4802 18.2847 19.2104C20.5544 16.9593 23.6774 15.5608 27.1278 15.5608ZM28.3988 18.1931V26.782H36.9871C36.6962 24.5488 35.6616 22.5513 34.1549 21.0266C32.6475 19.5192 30.6321 18.4846 28.3988 18.1931ZM36.9871 29.3432H27.1278C26.4199 29.3432 25.8389 28.7621 25.8389 28.0536V18.1931C23.6057 18.484 21.6082 19.5186 20.1008 21.0266C18.3032 22.8242 17.1956 25.3111 17.1956 28.0536C17.1956 30.7949 18.3032 33.283 20.1008 35.0806C21.8991 36.8782 24.386 37.9859 27.1278 37.9859C29.8697 37.9859 32.3579 36.8782 34.1549 35.0806C35.6616 33.5732 36.6969 31.5764 36.9871 29.3432Z" fill="#F1663E"/>
<path d="M48.79 24.8037C48.0822 24.8037 47.519 24.2226 47.519 23.5141C47.519 22.8056 48.0822 22.2431 48.79 22.2431H58.4673C59.1752 22.2431 59.7383 22.8062 59.7383 23.5141C59.7383 24.222 59.1752 24.8037 58.4673 24.8037H48.79ZM48.79 18.9381C48.0822 18.9381 47.519 18.3756 47.519 17.6678C47.519 16.9599 48.0822 16.3782 48.79 16.3782H66.0395C66.7474 16.3782 67.3291 16.9592 67.3291 17.6678C67.3291 18.3763 66.748 18.9381 66.0395 18.9381H48.79Z" fill="#F1663E"/>
<path d="M75.7174 9.85986V54.8183C75.7174 56.6524 75.0101 58.3404 73.8653 59.5756C72.7033 60.8286 71.087 61.591 69.3079 61.591H12.6927C10.913 61.591 9.29739 60.8286 8.13466 59.5756C6.99114 58.3404 6.28261 56.6524 6.28261 54.8183V9.85986H2.56058C1.16209 9.85986 0 8.71506 0 7.29928V2.55994C0 1.16145 1.16209 0 2.56058 0H79.4401C80.13 0 80.7841 0.290203 81.2383 0.762344C81.7111 1.21591 82 1.85141 82 2.55994V7.29864C82 7.98859 81.6925 8.76952 81.1473 9.20578C80.6931 9.60489 80.0935 9.85986 79.4401 9.85986H75.7174ZM7.57155 7.29928H74.4285H79.4394V2.55994H2.56058V7.29864H7.57155V7.29928ZM73.1575 54.8176V9.85986H8.84255V54.8183C8.84255 55.999 9.29675 57.0694 10.0046 57.8324C10.6946 58.5768 11.6568 59.0304 12.6921 59.0304H69.3079C70.3426 59.0304 71.2868 58.5768 71.9947 57.8324C72.7033 57.0688 73.1575 55.9983 73.1575 54.8176Z" fill="#F1663E"/>
</g>
<defs>
<clipPath id="clip0_65_4635">
<rect width="82" height="82" fill="white"/>
</clipPath>
</defs>
</svg>
