<svg width="100" height="100" viewBox="0 0 100 100" fill="none" xmlns="http://www.w3.org/2000/svg">
<rect width="100" height="100" rx="12.5" fill="white"/>
<path fill-rule="evenodd" clip-rule="evenodd" d="M20.3745 13.75H79.6994C83.343 13.75 86.324 16.9659 86.324 20.8961V79.1779C86.324 83.1081 83.343 86.324 79.6994 86.324H20.3745C16.7309 86.324 13.75 83.1081 13.75 79.1779V20.8961C13.75 16.9659 16.7309 13.75 20.3745 13.75ZM50.037 15.8845H20.1534C17.8056 15.8845 15.8844 17.8056 15.8844 20.1535V79.9205C15.8844 82.2684 17.8056 84.1895 20.1534 84.1895H50.037V15.8845Z" fill="#6D6E70"/>
<path fill-rule="evenodd" clip-rule="evenodd" d="M62.5174 41.2199C59.5615 44.7944 55.8638 46.7786 51.7099 47.7856L38.8154 47.7519C38.7935 41.5911 38.7733 33.69 38.8739 27.418C43.838 27.5696 52.6283 27.1501 56.6655 27.8906C62.7115 28.9996 65.6684 36.0175 62.5174 41.2199ZM55.9534 50.8225C58.0588 50.9335 59.8091 51.7569 60.9565 52.7175C63.1963 54.5926 65.2881 58.0802 64.937 62.5669L64.92 62.7065C64.7684 65.9964 62.9031 68.8321 60.6295 70.7922C59.6685 71.621 58.0435 72.4984 56.5504 72.9165C54.4489 73.5054 53.028 73.3031 50.789 73.3824L49.4528 73.3767L45.0379 73.3566L32.8091 73.3991L29.7839 73.4107C29.0884 73.414 28.8566 73.3406 28.812 73.6755L28.8155 75.1962C28.8403 75.5062 28.7829 75.5659 28.9516 75.6172C34.7909 75.6522 40.6526 75.6169 46.498 75.6194C49.4226 75.62 52.3466 75.6179 55.2713 75.6194C58.2685 75.6207 60.4395 75.4836 62.8153 74.3451C66.8444 72.4147 69.6603 69.1867 70.826 64.7315C71.479 62.2359 71.4025 59.4665 70.6949 57.0439C69.8903 54.2875 68.8885 53.0066 67.3436 51.3196C65.4293 49.2291 64.1384 49.013 61.9284 47.5114C62.0503 47.404 63.3274 46.7197 64.013 46.195C65.9079 44.7432 67.5559 42.5274 68.2716 40.0161C70.5145 32.1507 64.611 24.6562 56.9355 24.5954L32.5066 24.4932L28.8765 24.5064L28.8945 27.3921L33.7864 27.3732L33.6809 50.8654C41.4584 50.651 48.2828 50.4179 55.9534 50.8225Z" fill="#ED1C24"/>
<path d="M49.1158 66.6391C49.1158 68.1529 48.6855 69.3827 47.8249 70.3345C46.5794 71.7065 44.6813 72.3949 42.1304 72.3949H33.692V52.1524H41.5228C45.3194 52.1524 47.2175 53.9137 47.2175 57.4319C47.2175 58.4899 47.0099 59.3757 46.5946 60.084C46.2456 60.6864 45.7141 61.2026 44.9903 61.6282C46.6151 61.9624 47.7186 62.6101 48.316 63.5721C48.8475 64.4526 49.1158 65.4752 49.1158 66.6391ZM42.3529 58.1302C42.3529 57.209 41.938 56.6017 41.1079 56.303C40.8091 56.2066 40.4144 56.1562 39.9184 56.1562H38.9566V60.1145H39.9184C40.8294 60.1145 41.4824 59.892 41.8771 59.4466C42.196 59.0922 42.3529 58.6519 42.3529 58.1302ZM43.8514 66.2849C43.8514 65.1106 43.2438 64.4171 42.0238 64.2099C41.6394 64.1489 40.976 64.1189 40.0395 64.1189H38.9566V68.391H40.1256C41.4721 68.391 42.4139 68.234 42.945 67.9151C43.5474 67.5607 43.8514 67.014 43.8514 66.2849Z" fill="#ED1C24"/>
<path d="M21.3732 73.572V70.5435C21.3732 70.2126 21.2967 69.9579 21.146 69.7817C20.9954 69.6056 20.7779 69.5174 20.4962 69.5174C20.1968 69.5174 19.9732 69.6018 19.8244 69.7718C19.6759 69.9423 19.6015 70.2005 19.6015 70.5435V73.572H21.3732ZM24.476 73.572V70.2576C24.476 69.8972 24.3708 69.6155 24.1572 69.4075C23.9457 69.202 23.6562 69.0986 23.288 69.0986C22.9259 69.0986 22.6357 69.202 22.4227 69.4075C22.2094 69.6155 22.1013 69.8972 22.1013 70.2576V73.572H24.476ZM25.2045 74.3594H18.873V70.6138C18.873 69.9894 19.0042 69.5195 19.2705 69.1981C19.537 68.8793 19.9303 68.7205 20.449 68.7205C20.7017 68.7205 20.9267 68.7698 21.1265 68.8694C21.326 68.9693 21.4869 69.1102 21.608 69.2941C21.8037 68.9575 22.0425 68.7031 22.3245 68.531C22.6084 68.3584 22.9337 68.2723 23.2997 68.2723C23.885 68.2723 24.3488 68.4644 24.6915 68.8499C25.0345 69.2336 25.2045 69.7545 25.2045 70.4121V74.3594ZM25.2045 65.1804H20.3063V60.5872H21.0228V64.4125H22.2445V61.8989H22.951V64.4125H24.4998V60.3739H25.2045V65.1804ZM23.3114 56.8158V54.9009L21.4355 55.8526L23.3114 56.8158ZM25.2045 58.5895L20.3063 56.0989V55.6174L25.2045 53.1055V53.9261L23.9594 54.5621V57.1484L25.2045 57.7805V58.5895ZM22.3483 49.9686V47.3646C22.3483 47.1002 22.2913 46.8988 22.1761 46.7598C22.0624 46.6188 21.8979 46.55 21.6825 46.55C21.4688 46.55 21.3048 46.6188 21.1932 46.7598C21.0794 46.8988 21.0228 47.1002 21.0228 47.3646V49.9686H22.3483ZM23.0648 49.9686H25.2045V50.7361H20.318V47.3646C20.318 46.8636 20.4374 46.4721 20.6783 46.1879C20.921 45.9062 21.2538 45.7634 21.6825 45.7634C22.0312 45.7634 22.3327 45.875 22.5872 46.1C22.8398 46.3233 22.9964 46.6149 23.053 46.9731L25.2045 45.6146V46.4466L23.0648 47.8349V49.9686ZM25.2045 42.7396H20.2943V41.9604H25.2045V42.7396ZM25.2045 38.6318H20.3063V38.2304L23.7479 35.1154H20.3063V34.3656H25.2045V34.7671L21.7747 37.876H25.2045V38.6318ZM23.2997 27.7336H22.5949V25.7154H24.0749C24.4959 25.9971 24.8152 26.3674 25.0324 26.8216C25.2499 27.2776 25.3594 27.8041 25.3594 28.4055C25.3594 29.308 25.1167 30.0456 24.6292 30.6194C24.1415 31.193 23.5229 31.4792 22.7732 31.4792C22.0234 31.4792 21.4025 31.1913 20.9112 30.614C20.4197 30.0361 20.1748 29.2998 20.1748 28.4055C20.1748 27.8396 20.2709 27.3365 20.4668 26.8999C20.6624 26.4613 20.9483 26.097 21.3282 25.8075L21.7509 26.3967C21.4809 26.604 21.2675 26.8844 21.1128 27.2386C20.9579 27.5909 20.8799 27.9803 20.8799 28.4055C20.8799 29.0751 21.0578 29.6233 21.4122 30.0518C21.7687 30.4786 22.2189 30.6941 22.761 30.6941C23.3035 30.6941 23.7539 30.4808 24.1079 30.0539C24.4647 29.6269 24.6429 29.0769 24.6429 28.4055C24.6429 27.9845 24.5664 27.5947 24.4137 27.2386C24.2609 26.8804 24.065 26.6296 23.8283 26.4885H23.2997V27.7336Z" fill="#231F20"/>
</svg>
