<svg width="100" height="100" viewBox="0 0 100 100" fill="none" xmlns="http://www.w3.org/2000/svg">
<rect width="100" height="100" rx="12.5" fill="white"/>
<path fill-rule="evenodd" clip-rule="evenodd" d="M19.1498 12.3037H80.4577C84.223 12.3037 87.3037 15.627 87.3037 19.6887V79.9188C87.3037 83.9804 84.223 87.3037 80.4577 87.3037H19.1498C15.3844 87.3037 12.3037 83.9804 12.3037 79.9188V19.6887C12.3037 15.627 15.3844 12.3037 19.1498 12.3037ZM49.8037 14.5094H18.9213C16.4949 14.5094 14.5094 16.495 14.5094 18.9213V80.6862C14.5094 83.1125 16.4949 85.098 18.9213 85.098H49.8037V14.5094Z" fill="#BBBDC0"/>
<path fill-rule="evenodd" clip-rule="evenodd" d="M62.7012 40.6916C59.6466 44.3856 55.8254 46.4364 51.5326 47.4772L38.2069 47.4422C38.1845 41.0757 38.1631 32.9105 38.2677 26.4286C43.3979 26.5851 52.4817 26.1517 56.6539 26.9173C62.9019 28.0634 65.9577 35.3157 62.7012 40.6916ZM38.4175 62.0571V56.5571H40.428C42.4683 56.5571 43.2668 57.3853 43.2668 59.2481C43.2668 61.1112 42.4981 62.0571 40.5169 62.0571H38.4175ZM32.9174 72.6434H38.4765V65.3988H40.5465L45.3047 73.906L44.6376 73.903L31.9998 73.9465L28.8737 73.9589C28.155 73.9619 27.915 73.8864 27.8691 74.2325L27.8729 75.8038C27.8982 76.1244 27.8388 76.186 28.0134 76.2391C34.0484 76.2751 40.1057 76.2387 46.1465 76.2411C49.1689 76.2421 52.1904 76.2396 55.2128 76.2411C58.3108 76.2426 60.554 76.101 63.0092 74.9244C67.1731 72.9295 70.0829 69.5935 71.2876 64.9893C71.9623 62.4102 71.8834 59.5484 71.1525 57.045C70.3205 54.1961 69.2857 52.8727 67.6889 51.1293C65.7104 48.9688 64.3765 48.7457 62.0928 47.1937C62.219 47.0827 63.5384 46.3756 64.2469 45.8333C66.2053 44.3332 67.9082 42.043 68.648 39.4481C70.966 31.3197 64.8648 23.5744 56.9327 23.5116L31.6874 23.406L27.9357 23.4194L27.9546 26.4021L33.01 26.3825L32.9011 50.6595C40.9381 50.4382 47.991 50.1971 55.9175 50.6155C58.0937 50.73 59.9027 51.5813 61.088 52.5735C63.4027 54.5117 65.5649 58.1159 65.2018 62.7522L65.1844 62.8967C65.0277 66.2968 63.1001 69.2269 60.7505 71.2526C59.7569 72.1092 58.0781 73.0157 56.5346 73.4482C54.4208 74.0405 52.9729 73.8582 50.7629 73.9238L45.5142 64.0975V63.9795C47.5844 63.0925 48.7966 61.7022 48.7966 58.9819C48.7966 54.6943 46.2831 52.7721 41.2562 52.7721H32.9174V72.6434Z" fill="#01618D"/>
<path d="M20.5134 75.4236V72.5364C20.5134 72.1256 20.4222 71.814 20.2403 71.6039C20.0585 71.3915 19.7932 71.2859 19.4413 71.2859C19.0972 71.2859 18.8301 71.3915 18.6379 71.6039C18.4459 71.814 18.3506 72.1115 18.3506 72.4961V75.4236H20.5134ZM24.1412 76.2349H17.5979V72.484C17.5979 71.8423 17.7578 71.3409 18.0794 70.9785C18.4033 70.6142 18.8485 70.4325 19.4168 70.4325C19.8904 70.4325 20.2969 70.5737 20.6351 70.859C20.9729 71.1444 21.1835 71.5189 21.2661 71.9863L24.1412 70.3492V71.2497L21.2783 72.8866V75.4236H24.1412V76.2349ZM23.5603 64.7305C23.5603 64.0545 23.3785 63.5025 23.0125 63.0756C22.6459 62.6484 22.1807 62.4361 21.616 62.4361C21.0558 62.4361 20.5904 62.6506 20.2221 63.0795C19.8558 63.5084 19.6718 64.0587 19.6718 64.7305C19.6718 65.402 19.8541 65.9503 20.2201 66.3752C20.5864 66.8002 21.0515 67.0127 21.616 67.0127C22.1807 67.0127 22.6459 66.8002 23.0125 66.3752C23.3785 65.9503 23.5603 65.402 23.5603 64.7305ZM24.3011 64.7305C24.3011 65.6308 24.0463 66.3713 23.5362 66.9519C23.0263 67.5345 22.3869 67.8241 21.616 67.8241C20.8415 67.8241 20.202 67.5345 19.6983 66.9559C19.1942 66.3775 18.9437 65.635 18.9437 64.7305C18.9437 63.8181 19.1942 63.0713 19.6961 62.4927C20.1978 61.914 20.8372 61.6248 21.616 61.6248C22.3911 61.6248 23.0323 61.914 23.5402 62.4947C24.0483 63.0755 24.3011 63.8221 24.3011 64.7305ZM24.1412 58.6544H19.079V57.8612H23.413V54.1023H24.1412V58.6544ZM24.1412 51.518H19.079V50.7248H23.413V46.9659H24.1412V51.518ZM24.1412 44.3817H19.079V39.6353H19.8196V43.5885H21.0821V40.9909H21.8122V43.5885H23.413V39.4146H24.1412V44.3817ZM21.1894 35.7985V33.1077C21.1894 32.8346 21.1306 32.6262 21.0111 32.4827C20.8938 32.3369 20.724 32.2661 20.5013 32.2661C20.2809 32.2661 20.1109 32.3369 19.9956 32.4827C19.8782 32.6262 19.8196 32.8346 19.8196 33.1077V35.7985H21.1894ZM21.9297 35.7985H24.1412V36.5917H19.0914V33.1077C19.0914 32.5899 19.2146 32.1852 19.4637 31.8916C19.7145 31.6003 20.0585 31.4526 20.5013 31.4526C20.8616 31.4526 21.1732 31.568 21.4362 31.8005C21.697 32.0314 21.859 32.3327 21.9176 32.7029L24.1412 31.2991V32.1588L21.9297 33.5932V35.7985ZM23.4958 28.7735L22.8322 28.389C23.0649 28.041 23.2467 27.6608 23.3763 27.2501C23.5079 26.8393 23.5728 26.4467 23.5728 26.0702C23.5728 25.619 23.4796 25.2569 23.2973 24.98C23.1133 24.7026 22.8766 24.5651 22.5873 24.5651C22.3 24.5651 22.0854 24.6904 21.9461 24.9435C21.8043 25.1963 21.7275 25.5971 21.7114 26.1413C21.6992 27.0619 21.592 27.6949 21.3916 28.0392C21.1894 28.3831 20.8554 28.5549 20.3903 28.5549C19.9549 28.5549 19.605 28.3644 19.34 27.9884C19.0748 27.6102 18.9437 27.1041 18.9437 26.4671C18.9437 26.034 19.0043 25.6111 19.1254 25.2023C19.2491 24.7938 19.4311 24.3992 19.6718 24.0187L20.3294 24.4173C20.1171 24.733 19.9512 25.073 19.8357 25.437C19.7185 25.7993 19.6599 26.1472 19.6599 26.479C19.6599 26.8634 19.7266 27.1711 19.862 27.4038C19.9956 27.6385 20.1714 27.7538 20.3903 27.7538C20.6147 27.7538 20.7744 27.6363 20.8697 27.4016C20.9646 27.1669 21.0111 26.7584 21.0111 26.1775C21.0111 25.3704 21.1487 24.7635 21.4199 24.3527C21.693 23.9397 22.0976 23.7356 22.636 23.7356C23.1133 23.7356 23.5101 23.9439 23.8275 24.3607C24.1432 24.7776 24.3011 25.3176 24.3011 25.9814C24.3011 26.4708 24.2304 26.9583 24.0905 27.4421C23.951 27.9276 23.7528 28.3709 23.4958 28.7735Z" fill="#231F20"/>
</svg>
